<?xml version="1.0" encoding="UTF-8"?>
<svg width="28px" height="26px" viewBox="0 0 28 26" version="1.1" xmlns="http://www.w3.org/2000/svg" xmlns:xlink="http://www.w3.org/1999/xlink">
    <!-- Generator: Sketch 43.2 (39069) - http://www.bohemiancoding.com/sketch -->
    <title>checkmark-success</title>
    <desc>Created with Sketch.</desc>
    <defs></defs>
    <g id="Marketing-Site" stroke="none" stroke-width="1" fill="none" fill-rule="evenodd">
        <g id="Desktop-HD-Copy-12" transform="translate(-774.000000, -3307.000000)" fill-rule="nonzero" fill="#7ADDA1">
            <g id="checkmark-success" transform="translate(774.000000, 3307.000000)">
                <path d="M24.0853717,0.222857143 C23.971223,0.128311688 23.8302158,0.0607792208 23.6690647,0.0607792208 C23.5079137,0.0607792208 23.3601918,0.128311688 23.2460432,0.22961039 L9.83693046,17.5584416 C9.83693046,17.5584416 4.56594724,12.4597403 4.41822542,12.3111688 C4.2705036,12.1625974 4.07577938,11.9127273 3.78033573,11.9127273 C3.48489209,11.9127273 3.35059952,12.1220779 3.19616307,12.2774026 C3.08201439,12.398961 1.20191847,14.3844156 0.27529976,15.3703896 C0.221582734,15.4311688 0.188009592,15.4649351 0.141007194,15.5122078 C0.0604316547,15.627013 0.0067146283,15.7553247 0.0067146283,15.8971429 C0.0067146283,16.0457143 0.0604316547,16.1672727 0.141007194,16.2820779 L0.329016787,16.4576623 C0.329016787,16.4576623 9.682494,25.4935065 9.83693046,25.6488312 C9.99136691,25.8041558 10.1793765,26 10.4546763,26 C10.7232614,26 10.9448441,25.7096104 11.0724221,25.5812987 L27.7985612,3.97090909 C27.8791367,3.8561039 27.9328537,3.72779221 27.9328537,3.57922078 C27.9328537,3.41038961 27.8657074,3.26857143 27.7717026,3.14701299 L24.0853717,0.222857143 Z" id="Shape"></path>
            </g>
        </g>
    </g>
</svg>