<?xml version="1.0" encoding="UTF-8"?>
<svg width="92px" height="115px" viewBox="0 0 92 115" version="1.1" xmlns="http://www.w3.org/2000/svg" xmlns:xlink="http://www.w3.org/1999/xlink">
    <!-- Generator: Sketch 42 (36781) - http://www.bohemiancoding.com/sketch -->
    <title>Group 8</title>
    <desc>Created with Sketch.</desc>
    <defs></defs>
    <g id="Marketing-Site" stroke="none" stroke-width="1" fill="none" fill-rule="evenodd">
        <g id="Desktop-HD-Copy-7" transform="translate(-930.000000, -976.000000)">
            <g id="Group-8" transform="translate(928.000000, 977.000000)">
                <circle id="Oval-4-Copy" stroke="#F8E81C" stroke-width="2" fill="#FFF9A1" cx="31.5" cy="14.5" r="4.5"></circle>
                <circle id="Oval-4-Copy-2" stroke="#F8E81C" stroke-width="2" fill="#FFF9A1" cx="42" cy="4" r="4"></circle>
                <path d="M73.6651441,90.6631837 C74.1854167,90.0271262 85.6545574,77.5778935 80.5216403,73.5149445 C79.0837065,72.3767512 75.265749,71.3399187 75.0783792,73.604636 C74.6688818,78.5541818 82.9844505,81.3330997 86.7831673,75.8458667 C87.9154986,74.2102181 88.3604268,72.1931505 89.1490566,70.3667924" id="Path-3" stroke="#FCCACA" stroke-width="2" stroke-linecap="round" transform="translate(81.407100, 80.514988) rotate(26.000000) translate(-81.407100, -80.514988) "></path>
                <g id="Group" transform="translate(0.000000, 33.000000)">
                    <path d="M64.05,19.8077321 C69.2690909,19.8077321 73.5,15.550544 73.5,10.2990364 C73.5,5.0475288 77.0323064,12.7212526 72.2884161,8.35667737 C67.5445259,3.9921021 54.6,5.0475288 54.6,10.2990364 C54.6,15.550544 58.8309091,19.8077321 64.05,19.8077321 Z" id="Oval-Copy-2" fill="#FFE5E5" transform="translate(64.682143, 12.721257) scale(-1, 1) rotate(-315.000000) translate(-64.682143, -12.721257) "></path>
                    <path d="M63.584468,19.8182018 C68.1751749,19.8182018 71.8966781,16.0735837 71.8966781,11.4543631 C71.8966781,6.83514251 75.0036911,13.584942 70.8309702,9.74586612 C66.6582493,5.90679029 55.2722579,6.83514251 55.2722579,11.4543631 C55.2722579,16.0735837 58.9937612,19.8182018 63.584468,19.8182018 Z" id="Oval-Copy" fill="#FCCACA" transform="translate(64.140500, 13.584946) scale(-1, 1) rotate(-315.000000) translate(-64.140500, -13.584946) "></path>
                    <path d="M11.55,19.8077321 C16.7690909,19.8077321 21,15.550544 21,10.2990364 C21,5.0475288 24.5323064,12.7212526 19.7884161,8.35667737 C15.0445259,3.9921021 2.1,5.0475288 2.1,10.2990364 C2.1,15.550544 6.33090911,19.8077321 11.55,19.8077321 Z" id="Oval-Copy" fill="#FFE5E5" transform="translate(12.182143, 12.721257) rotate(-315.000000) translate(-12.182143, -12.721257) "></path>
                    <path d="M12.484468,19.8182018 C17.0751749,19.8182018 20.7966781,16.0735837 20.7966781,11.4543631 C20.7966781,6.83514251 23.9036911,13.584942 19.7309702,9.74586612 C15.5582493,5.90679029 4.17225793,6.83514251 4.17225793,11.4543631 C4.17225793,16.0735837 7.89376116,19.8182018 12.484468,19.8182018 Z" id="Oval-Copy" fill="#FCCACA" transform="translate(13.040500, 13.584946) rotate(-315.000000) translate(-13.040500, -13.584946) "></path>
                    <rect id="Rectangle-15" fill="#E2A2A2" x="24.5" y="71.8434783" width="9.1" height="7.04347826"></rect>
                    <rect id="Rectangle-15" fill="#E2A2A2" x="42.7" y="71.8434783" width="9.1" height="7.04347826"></rect>
                    <polyline id="Path-2" fill="#FCCACA" points="9.8 59.1652174 11.9150259 79.8360523 26.8889424 80.5098459 32.4280181 73.558346 10.4196813 59.3138495"></polyline>
                    <polyline id="Path-2" fill="#FCCACA" transform="translate(54.714009, 69.837532) scale(-1, 1) translate(-54.714009, -69.837532) " points="43.4 59.1652174 45.5150259 79.8360523 60.4889424 80.5098459 66.0280181 73.558346 44.0196813 59.3138495"></polyline>
                    <ellipse id="Oval" fill="#FFE6E6" cx="38.15" cy="40.5" rx="36.05" ry="36.273913"></ellipse>
                    <ellipse id="Oval-Copy-3" fill="#FCCACA" cx="39.2" cy="47.2608696" rx="13.3" ry="9.86086957"></ellipse>
                    <ellipse id="Oval-Copy-4" fill="#E3A2A2" transform="translate(35.350000, 47.260870) rotate(-270.000000) translate(-35.350000, -47.260870) " cx="35.35" cy="47.2608696" rx="3.5" ry="1.76086957"></ellipse>
                    <ellipse id="Oval-Copy-5" fill="#E3A2A2" transform="translate(42.350000, 47.260870) rotate(-270.000000) translate(-42.350000, -47.260870) " cx="42.35" cy="47.2608696" rx="3.5" ry="1.76086957"></ellipse>
                    <ellipse id="Oval-2" fill="#6F6F6F" cx="30.8" cy="29.6521739" rx="2.8" ry="2.8173913"></ellipse>
                    <ellipse id="Oval-2-Copy-2" fill="#FFFFFF" cx="31.5" cy="28.9478261" rx="0.7" ry="0.704347826"></ellipse>
                    <ellipse id="Oval-2-Copy" fill="#6F6F6F" cx="46.9" cy="29.6521739" rx="2.8" ry="2.8173913"></ellipse>
                    <ellipse id="Oval-2-Copy-2" fill="#FFFFFF" cx="47.6" cy="28.9478261" rx="0.7" ry="0.704347826"></ellipse>
                </g>
                <circle id="Oval-4" stroke="#F8E81C" stroke-width="2" fill="#FFF9A1" cx="40.5" cy="27.5" r="5.5"></circle>
            </g>
        </g>
    </g>
</svg>