<?xml version="1.0" encoding="UTF-8"?>
<svg width="428px" height="319px" viewBox="0 0 428 319" version="1.1" xmlns="http://www.w3.org/2000/svg" xmlns:xlink="http://www.w3.org/1999/xlink">
    <!-- Generator: Sketch 43.2 (39069) - http://www.bohemiancoding.com/sketch -->
    <title>Group 11</title>
    <desc>Created with Sketch.</desc>
    <defs>
        <rect id="path-1" x="0" y="0" width="420" height="311"></rect>
        <filter x="-1.7%" y="-1.6%" width="103.3%" height="104.5%" filterUnits="objectBoundingBox" id="filter-2">
            <feOffset dx="0" dy="2" in="SourceAlpha" result="shadowOffsetOuter1"></feOffset>
            <feGaussianBlur stdDeviation="2" in="shadowOffsetOuter1" result="shadowBlurOuter1"></feGaussianBlur>
            <feColorMatrix values="0 0 0 0 0.707536139   0 0 0 0 0.707536139   0 0 0 0 0.707536139  0 0 0 0.5 0" type="matrix" in="shadowBlurOuter1"></feColorMatrix>
        </filter>
    </defs>
    <g id="Marketing-Site" stroke="none" stroke-width="1" fill="none" fill-rule="evenodd">
        <g id="Group-11" transform="translate(4.000000, 2.000000)">
            <g id="Group-10">
                <g id="Rectangle-4">
                    <use fill="black" fill-opacity="1" filter="url(#filter-2)" xlink:href="#path-1"></use>
                    <use fill="#FBFBFC" fill-rule="evenodd" xlink:href="#path-1"></use>
                </g>
                <rect id="Rectangle-7" fill="#6792ED" x="0" y="0" width="420" height="106.467773"></rect>
                <path d="M53.744,51.992 C54.1920022,51.9759999 54.6079981,51.8760009 54.992,51.692 C55.3760019,51.5079991 55.7119986,51.2640015 56,50.96 C56.2880014,50.6559985 56.5119992,50.300002 56.672,49.892 C56.8320008,49.483998 56.912,49.0400024 56.912,48.56 C56.912,48.3199988 56.8800003,48.0720013 56.816,47.816 C56.7519997,47.5599987 56.6440008,47.3120012 56.492,47.072 C56.3399992,46.8319988 56.1240014,46.608001 55.844,46.4 C55.5639986,46.191999 55.2080022,46.0080008 54.776,45.848 L53.744,45.464 L53.744,51.992 Z M52.592,37.016 C52.2079981,37.0800003 51.8440017,37.1999991 51.5,37.376 C51.1559983,37.5520009 50.8520013,37.7799986 50.588,38.06 C50.3239987,38.3400014 50.1120008,38.6679981 49.952,39.044 C49.7919992,39.4200019 49.712,39.8319978 49.712,40.28 C49.712,41.1280042 49.9359978,41.7679978 50.384,42.2 C50.8320022,42.6320022 51.4319962,42.9839986 52.184,43.256 L52.592,43.4 L52.592,37.016 Z M52.592,53.288 C52.1599978,53.288 51.7200022,53.2360005 51.272,53.132 C50.8239978,53.0279995 50.3880021,52.8680011 49.964,52.652 C49.5399979,52.4359989 49.1440018,52.1720016 48.776,51.86 C48.4079982,51.5479984 48.0800014,51.1840021 47.792,50.768 L49.16,49.832 C49.5440019,50.4880033 50.039997,51.0039981 50.648,51.38 C51.256003,51.7560019 51.9039966,51.9599998 52.592,51.992 L52.592,45.032 L50.888,44.408 C50.295997,44.199999 49.8200018,43.9200018 49.46,43.568 C49.0999982,43.2159982 48.820001,42.8480019 48.62,42.464 C48.419999,42.0799981 48.2880003,41.7040018 48.224,41.336 C48.1599997,40.9679982 48.128,40.6480014 48.128,40.376 C48.128,39.7039966 48.2599987,39.0920028 48.524,38.54 C48.7880013,37.9879972 49.1359978,37.512002 49.568,37.112 C50.0000022,36.711998 50.4799974,36.3920012 51.008,36.152 C51.5360026,35.9119988 52.0639974,35.7680002 52.592,35.72 L52.592,34.112 L53.744,34.112 L53.744,35.72 C54.144002,35.72 54.543998,35.7479997 54.944,35.804 C55.344002,35.8600003 55.7319981,35.9679992 56.108,36.128 C56.4840019,36.2880008 56.8439983,36.5079986 57.188,36.788 C57.5320017,37.0680014 57.8639984,37.4239978 58.184,37.856 L56.864,38.816 C56.4959982,38.2399971 56.0280028,37.7960016 55.46,37.484 C54.8919972,37.1719984 54.3200029,37.016 53.744,37.016 L53.744,43.784 L55.424,44.36 C55.7760018,44.4880006 56.1359982,44.6639989 56.504,44.888 C56.8720018,45.1120011 57.2039985,45.3959983 57.5,45.74 C57.7960015,46.0840017 58.0359991,46.4959976 58.22,46.976 C58.4040009,47.4560024 58.496,48.0159968 58.496,48.656 C58.496,49.3440034 58.3640013,49.9639972 58.1,50.516 C57.8359987,51.0680028 57.4840022,51.543998 57.044,51.944 C56.6039978,52.344002 56.0960029,52.6599988 55.52,52.892 C54.9439971,53.1240012 54.352003,53.2559998 53.744,53.288 L53.744,54.896 L52.592,54.896 L52.592,53.288 Z M67.376,48.824 L60.032,48.824 L60.032,47.12 L66.824,36.008 L68.816,36.008 L68.816,47.528 L71.408,47.528 L71.408,48.824 L68.816,48.824 L68.816,53 L67.376,53 L67.376,48.824 Z M67.376,37.592 L67.328,37.592 L61.328,47.528 L67.376,47.528 L67.376,37.592 Z M74.744,50.84 L76.424,50.84 L74.576,56.312 L73.16,56.312 L74.744,50.84 Z M80.744,49.448 C81.0640016,50.2640041 81.4999972,50.8919978 82.052,51.332 C82.6040028,51.7720022 83.3599952,51.992 84.32,51.992 C84.9440031,51.992 85.4959976,51.896001 85.976,51.704 C86.4560024,51.511999 86.8519984,51.2480017 87.164,50.912 C87.4760016,50.5759983 87.7119992,50.1840022 87.872,49.736 C88.0320008,49.2879978 88.112,48.8080026 88.112,48.296 C88.112,47.6719969 87.9800013,47.1360022 87.716,46.688 C87.4519987,46.2399978 87.1080021,45.8760014 86.684,45.596 C86.2599979,45.3159986 85.7800027,45.1120006 85.244,44.984 C84.7079973,44.8559994 84.1680027,44.792 83.624,44.792 L83,44.792 L83,43.352 L83.72,43.352 C84.1680022,43.352 84.6199977,43.2920006 85.076,43.172 C85.5320023,43.0519994 85.9399982,42.8640013 86.3,42.608 C86.6600018,42.3519987 86.9519989,42.020002 87.176,41.612 C87.4000011,41.203998 87.512,40.7120029 87.512,40.136 C87.512,39.2239954 87.2280028,38.4760029 86.66,37.892 C86.0919972,37.3079971 85.3280048,37.016 84.368,37.016 C83.6639965,37.016 83.0320028,37.1959982 82.472,37.556 C81.9119972,37.9160018 81.4720016,38.399997 81.152,39.008 L79.784,38.24 C80.2480023,37.3599956 80.883996,36.720002 81.692,36.32 C82.500004,35.919998 83.3919951,35.72 84.368,35.72 C85.0080032,35.72 85.6159971,35.8119991 86.192,35.996 C86.7680029,36.1800009 87.2719978,36.4519982 87.704,36.812 C88.1360022,37.1720018 88.4759988,37.6239973 88.724,38.168 C88.9720012,38.7120027 89.096,39.3519963 89.096,40.088 C89.096,41.0160046 88.8400026,41.8359964 88.328,42.548 C87.8159974,43.2600036 87.064005,43.7519986 86.072,44.024 L86.072,44.072 C86.6160027,44.1680005 87.1079978,44.3479987 87.548,44.612 C87.9880022,44.8760013 88.3679984,45.1999981 88.688,45.584 C89.0080016,45.9680019 89.2559991,46.3999976 89.432,46.88 C89.6080009,47.3600024 89.696,47.8719973 89.696,48.416 C89.696,49.0880034 89.5880011,49.719997 89.372,50.312 C89.1559989,50.904003 88.8280022,51.4199978 88.388,51.86 C87.9479978,52.3000022 87.4000033,52.6479987 86.744,52.904 C86.0879967,53.1600013 85.3200044,53.288 84.44,53.288 C83.1599936,53.288 82.0760044,53.0200027 81.188,52.484 C80.2999956,51.9479973 79.6320022,51.1040058 79.184,49.952 L80.744,49.448 Z M91.304,44.504 C91.304,43.895997 91.3319997,43.2520034 91.388,42.572 C91.4440003,41.8919966 91.5479992,41.2280032 91.7,40.58 C91.8520008,39.9319968 92.0599987,39.3160029 92.324,38.732 C92.5880013,38.1479971 92.9279979,37.6320022 93.344,37.184 C93.7600021,36.7359978 94.2599971,36.3800013 94.844,36.116 C95.4280029,35.8519987 96.119996,35.72 96.92,35.72 C97.720004,35.72 98.4119971,35.8519987 98.996,36.116 C99.5800029,36.3800013 100.079998,36.7359978 100.496,37.184 C100.912002,37.6320022 101.251999,38.1479971 101.516,38.732 C101.780001,39.3160029 101.987999,39.9319968 102.14,40.58 C102.292001,41.2280032 102.396,41.8919966 102.452,42.572 C102.508,43.2520034 102.536,43.895997 102.536,44.504 C102.536,45.1280031 102.508,45.7759966 102.452,46.448 C102.396,47.1200034 102.292001,47.7799968 102.14,48.428 C101.987999,49.0760032 101.780001,49.6919971 101.516,50.276 C101.251999,50.8600029 100.912002,51.3759978 100.496,51.824 C100.079998,52.2720022 99.5800029,52.6279987 98.996,52.892 C98.4119971,53.1560013 97.720004,53.288 96.92,53.288 C96.119996,53.288 95.4280029,53.1560013 94.844,52.892 C94.2599971,52.6279987 93.7600021,52.2720022 93.344,51.824 C92.9279979,51.3759978 92.5880013,50.8600029 92.324,50.276 C92.0599987,49.6919971 91.8520008,49.0760032 91.7,48.428 C91.5479992,47.7799968 91.4440003,47.1200034 91.388,46.448 C91.3319997,45.7759966 91.304,45.1280031 91.304,44.504 Z M92.888,44.504 C92.888,44.9520022 92.9039998,45.4439973 92.936,45.98 C92.9680002,46.5160027 93.0319995,47.0599972 93.128,47.612 C93.2240005,48.1640028 93.3639991,48.7039974 93.548,49.232 C93.7320009,49.7600026 93.9719985,50.227998 94.268,50.636 C94.5640015,51.044002 94.9279978,51.3719988 95.36,51.62 C95.7920022,51.8680012 96.311997,51.992 96.92,51.992 C97.512003,51.992 98.0279978,51.8680012 98.468,51.62 C98.9080022,51.3719988 99.2759985,51.044002 99.572,50.636 C99.8680015,50.227998 100.107999,49.7600026 100.292,49.232 C100.476001,48.7039974 100.616,48.1640028 100.712,47.612 C100.808,47.0599972 100.872,46.5160027 100.904,45.98 C100.936,45.4439973 100.952,44.9520022 100.952,44.504 C100.952,44.0719978 100.936,43.5840027 100.904,43.04 C100.872,42.4959973 100.808,41.9480028 100.712,41.396 C100.616,40.8439972 100.476001,40.3040026 100.292,39.776 C100.107999,39.2479974 99.8680015,38.780002 99.572,38.372 C99.2759985,37.963998 98.9080022,37.6360012 98.468,37.388 C98.0279978,37.1399988 97.512003,37.016 96.92,37.016 C96.327997,37.016 95.8120022,37.1399988 95.372,37.388 C94.9319978,37.6360012 94.5640015,37.963998 94.268,38.372 C93.9719985,38.780002 93.7320009,39.2479974 93.548,39.776 C93.3639991,40.3040026 93.2240005,40.8439972 93.128,41.396 C93.0319995,41.9480028 92.9680002,42.4959973 92.936,43.04 C92.9039998,43.5840027 92.888,44.0719978 92.888,44.504 Z M103.784,44.504 C103.784,43.895997 103.812,43.2520034 103.868,42.572 C103.924,41.8919966 104.027999,41.2280032 104.18,40.58 C104.332001,39.9319968 104.539999,39.3160029 104.804,38.732 C105.068001,38.1479971 105.407998,37.6320022 105.824,37.184 C106.240002,36.7359978 106.739997,36.3800013 107.324,36.116 C107.908003,35.8519987 108.599996,35.72 109.4,35.72 C110.200004,35.72 110.891997,35.8519987 111.476,36.116 C112.060003,36.3800013 112.559998,36.7359978 112.976,37.184 C113.392002,37.6320022 113.731999,38.1479971 113.996,38.732 C114.260001,39.3160029 114.467999,39.9319968 114.62,40.58 C114.772001,41.2280032 114.876,41.8919966 114.932,42.572 C114.988,43.2520034 115.016,43.895997 115.016,44.504 C115.016,45.1280031 114.988,45.7759966 114.932,46.448 C114.876,47.1200034 114.772001,47.7799968 114.62,48.428 C114.467999,49.0760032 114.260001,49.6919971 113.996,50.276 C113.731999,50.8600029 113.392002,51.3759978 112.976,51.824 C112.559998,52.2720022 112.060003,52.6279987 111.476,52.892 C110.891997,53.1560013 110.200004,53.288 109.4,53.288 C108.599996,53.288 107.908003,53.1560013 107.324,52.892 C106.739997,52.6279987 106.240002,52.2720022 105.824,51.824 C105.407998,51.3759978 105.068001,50.8600029 104.804,50.276 C104.539999,49.6919971 104.332001,49.0760032 104.18,48.428 C104.027999,47.7799968 103.924,47.1200034 103.868,46.448 C103.812,45.7759966 103.784,45.1280031 103.784,44.504 Z M105.368,44.504 C105.368,44.9520022 105.384,45.4439973 105.416,45.98 C105.448,46.5160027 105.512,47.0599972 105.608,47.612 C105.704,48.1640028 105.843999,48.7039974 106.028,49.232 C106.212001,49.7600026 106.451999,50.227998 106.748,50.636 C107.044001,51.044002 107.407998,51.3719988 107.84,51.62 C108.272002,51.8680012 108.791997,51.992 109.4,51.992 C109.992003,51.992 110.507998,51.8680012 110.948,51.62 C111.388002,51.3719988 111.755999,51.044002 112.052,50.636 C112.348001,50.227998 112.587999,49.7600026 112.772,49.232 C112.956001,48.7039974 113.096,48.1640028 113.192,47.612 C113.288,47.0599972 113.352,46.5160027 113.384,45.98 C113.416,45.4439973 113.432,44.9520022 113.432,44.504 C113.432,44.0719978 113.416,43.5840027 113.384,43.04 C113.352,42.4959973 113.288,41.9480028 113.192,41.396 C113.096,40.8439972 112.956001,40.3040026 112.772,39.776 C112.587999,39.2479974 112.348001,38.780002 112.052,38.372 C111.755999,37.963998 111.388002,37.6360012 110.948,37.388 C110.507998,37.1399988 109.992003,37.016 109.4,37.016 C108.807997,37.016 108.292002,37.1399988 107.852,37.388 C107.411998,37.6360012 107.044001,37.963998 106.748,38.372 C106.451999,38.780002 106.212001,39.2479974 106.028,39.776 C105.843999,40.3040026 105.704,40.8439972 105.608,41.396 C105.512,41.9480028 105.448,42.4959973 105.416,43.04 C105.384,43.5840027 105.368,44.0719978 105.368,44.504 Z" id="$4,300" fill="#FFFFFF"></path>
                <rect id="Rectangle-8" fill="#5E86DA" x="210" y="0" width="210" height="106.467773"></rect>
                <path d="M47.72,64.92 L50.36,64.92 C50.6666682,64.92 50.9749985,64.9416664 51.285,64.985 C51.5950015,65.0283335 51.8733321,65.1149994 52.12,65.245 C52.3666679,65.3750007 52.5666659,65.5566655 52.72,65.79 C52.8733341,66.0233345 52.95,66.3333314 52.95,66.72 C52.95,67.120002 52.8383344,67.4516653 52.615,67.715 C52.3916655,67.9783346 52.0966685,68.1666661 51.73,68.28 L51.73,68.3 C51.9633345,68.3333335 52.174999,68.3983329 52.365,68.495 C52.555001,68.5916672 52.7183327,68.7149993 52.855,68.865 C52.9916674,69.0150007 53.0966663,69.189999 53.17,69.39 C53.2433337,69.590001 53.28,69.8033322 53.28,70.03 C53.28,70.4033352 53.2000008,70.7149988 53.04,70.965 C52.8799992,71.2150013 52.6733346,71.4166659 52.42,71.57 C52.1666654,71.7233341 51.8816683,71.833333 51.565,71.9 C51.2483317,71.966667 50.9333349,72 50.62,72 L47.72,72 L47.72,64.92 Z M49.28,67.75 L50.41,67.75 C50.5300006,67.75 50.6483328,67.7366668 50.765,67.71 C50.8816672,67.6833332 50.9866662,67.6400003 51.08,67.58 C51.1733338,67.5199997 51.248333,67.4400005 51.305,67.34 C51.361667,67.2399995 51.39,67.1200007 51.39,66.98 C51.39,66.8333326 51.3583336,66.7116671 51.295,66.615 C51.2316663,66.5183329 51.1500005,66.4433336 51.05,66.39 C50.9499995,66.3366664 50.8366673,66.2983335 50.71,66.275 C50.5833327,66.2516665 50.4600006,66.24 50.34,66.24 L49.28,66.24 L49.28,67.75 Z M49.28,70.68 L50.68,70.68 C50.8000006,70.68 50.921666,70.6666668 51.045,70.64 C51.1683339,70.6133332 51.2799995,70.566667 51.38,70.5 C51.4800005,70.433333 51.5616664,70.3466672 51.625,70.24 C51.6883336,70.1333328 51.72,70.0033341 51.72,69.85 C51.72,69.6833325 51.6783338,69.5483339 51.595,69.445 C51.5116662,69.3416661 51.4066673,69.2633336 51.28,69.21 C51.1533327,69.1566664 51.0166674,69.1200001 50.87,69.1 C50.7233326,69.0799999 50.5866673,69.07 50.46,69.07 L49.28,69.07 L49.28,70.68 Z M56.53,64.92 L57.82,64.92 L60.9,72 L59.14,72 L58.53,70.5 L55.78,70.5 L55.19,72 L53.47,72 L56.53,64.92 Z M57.13,66.98 L56.27,69.18 L58,69.18 L57.13,66.98 Z M61.67,64.92 L63.23,64.92 L63.23,70.56 L66.12,70.56 L66.12,72 L61.67,72 L61.67,64.92 Z M69.31,64.92 L70.6,64.92 L73.68,72 L71.92,72 L71.31,70.5 L68.56,70.5 L67.97,72 L66.25,72 L69.31,64.92 Z M69.91,66.98 L69.05,69.18 L70.78,69.18 L69.91,66.98 Z M74.39,64.92 L76.51,64.92 L79.52,69.84 L79.54,69.84 L79.54,64.92 L81.1,64.92 L81.1,72 L79.06,72 L75.97,66.96 L75.95,66.96 L75.95,72 L74.39,72 L74.39,64.92 Z M87.17,66.76 C87.0166659,66.5733324 86.8283344,66.4300005 86.605,66.33 C86.3816656,66.2299995 86.1233348,66.18 85.83,66.18 C85.5366652,66.18 85.2650013,66.2366661 85.015,66.35 C84.7649988,66.4633339 84.5483343,66.6216656 84.365,66.825 C84.1816658,67.0283343 84.0383339,67.2699986 83.935,67.55 C83.8316662,67.8300014 83.78,68.1333317 83.78,68.46 C83.78,68.793335 83.8316662,69.098332 83.935,69.375 C84.0383339,69.651668 84.1799991,69.8916656 84.36,70.095 C84.5400009,70.2983344 84.7516655,70.4566661 84.995,70.57 C85.2383346,70.6833339 85.4999986,70.74 85.78,70.74 C86.1000016,70.74 86.3833321,70.673334 86.63,70.54 C86.8766679,70.406666 87.0799992,70.2200012 87.24,69.98 L88.54,70.95 C88.2399985,71.3700021 87.8600023,71.679999 87.4,71.88 C86.9399977,72.080001 86.4666691,72.18 85.98,72.18 C85.4266639,72.18 84.916669,72.0933342 84.45,71.92 C83.983331,71.7466658 83.5800017,71.498335 83.24,71.175 C82.8999983,70.851665 82.635001,70.4600023 82.445,70 C82.2549991,69.5399977 82.16,69.0266695 82.16,68.46 C82.16,67.8933305 82.2549991,67.3800023 82.445,66.92 C82.635001,66.4599977 82.8999983,66.068335 83.24,65.745 C83.5800017,65.4216651 83.983331,65.1733342 84.45,65 C84.916669,64.8266658 85.4266639,64.74 85.98,64.74 C86.180001,64.74 86.3883323,64.7583331 86.605,64.795 C86.8216678,64.8316669 87.034999,64.8899996 87.245,64.97 C87.455001,65.0500004 87.6566657,65.156666 87.85,65.29 C88.0433343,65.423334 88.2166659,65.5866657 88.37,65.78 L87.17,66.76 Z M89.45,64.92 L94.26,64.92 L94.26,66.36 L91.01,66.36 L91.01,67.68 L94.08,67.68 L94.08,69.12 L91.01,69.12 L91.01,70.56 L94.44,70.56 L94.44,72 L89.45,72 L89.45,64.92 Z" id="BALANCE" fill="#FFFFFF"></path>
                <path d="M266.264,38.024 L266.24,38.024 L263.168,40.544 L262.28,39.44 L266.48,36.008 L267.704,36.008 L267.704,53 L266.264,53 L266.264,38.024 Z M276.512,43.496 L276.56,43.496 C276.848001,43.2559988 277.235998,43.0760006 277.724,42.956 C278.212002,42.8359994 278.663998,42.776 279.08,42.776 C279.832004,42.776 280.527997,42.9119986 281.168,43.184 C281.808003,43.4560014 282.359998,43.8279976 282.824,44.3 C283.288002,44.7720024 283.647999,45.3239968 283.904,45.956 C284.160001,46.5880032 284.288,47.2719963 284.288,48.008 C284.288,48.7760038 284.148001,49.4839968 283.868,50.132 C283.587999,50.7800032 283.200002,51.3359977 282.704,51.8 C282.207998,52.2640023 281.620003,52.6279987 280.94,52.892 C280.259997,53.1560013 279.520004,53.288 278.72,53.288 C277.919996,53.288 277.180003,53.1560013 276.5,52.892 C275.819997,52.6279987 275.232002,52.2640023 274.736,51.8 C274.239998,51.3359977 273.852001,50.7800032 273.572,50.132 C273.291999,49.4839968 273.152,48.7760038 273.152,48.008 C273.152,47.5599978 273.2,47.136002 273.296,46.736 C273.392,46.335998 273.519999,45.9560018 273.68,45.596 C273.840001,45.2359982 274.007999,44.8960016 274.184,44.576 C274.360001,44.2559984 274.535999,43.9520014 274.712,43.664 L279.32,36.008 L281.144,36.008 L276.512,43.496 Z M278.72,44.024 C278.159997,44.024 277.640002,44.127999 277.16,44.336 C276.679998,44.544001 276.260002,44.8279982 275.9,45.188 C275.539998,45.5480018 275.256001,45.9719976 275.048,46.46 C274.839999,46.9480024 274.736,47.4639973 274.736,48.008 C274.736,48.600003 274.831999,49.1399976 275.024,49.628 C275.216001,50.1160024 275.487998,50.5359982 275.84,50.888 C276.192002,51.2400018 276.611998,51.511999 277.1,51.704 C277.588002,51.896001 278.127997,51.992 278.72,51.992 C279.312003,51.992 279.851998,51.896001 280.34,51.704 C280.828002,51.511999 281.247998,51.2400018 281.6,50.888 C281.952002,50.5359982 282.223999,50.1160024 282.416,49.628 C282.608001,49.1399976 282.704,48.600003 282.704,48.008 C282.704,47.4639973 282.600001,46.9480024 282.392,46.46 C282.183999,45.9719976 281.900002,45.5480018 281.54,45.188 C281.179998,44.8279982 280.756002,44.544001 280.268,44.336 C279.779998,44.127999 279.264003,44.024 278.72,44.024 Z" id="16" fill="#FFFFFF"></path>
                <path d="M265.35,66.76 C265.196666,66.5733324 265.008334,66.4300005 264.785,66.33 C264.561666,66.2299995 264.303335,66.18 264.01,66.18 C263.716665,66.18 263.445001,66.2366661 263.195,66.35 C262.944999,66.4633339 262.728334,66.6216656 262.545,66.825 C262.361666,67.0283343 262.218334,67.2699986 262.115,67.55 C262.011666,67.8300014 261.96,68.1333317 261.96,68.46 C261.96,68.793335 262.011666,69.098332 262.115,69.375 C262.218334,69.651668 262.359999,69.8916656 262.54,70.095 C262.720001,70.2983344 262.931665,70.4566661 263.175,70.57 C263.418335,70.6833339 263.679999,70.74 263.96,70.74 C264.280002,70.74 264.563332,70.673334 264.81,70.54 C265.056668,70.406666 265.259999,70.2200012 265.42,69.98 L266.72,70.95 C266.419999,71.3700021 266.040002,71.679999 265.58,71.88 C265.119998,72.080001 264.646669,72.18 264.16,72.18 C263.606664,72.18 263.096669,72.0933342 262.63,71.92 C262.163331,71.7466658 261.760002,71.498335 261.42,71.175 C261.079998,70.851665 260.815001,70.4600023 260.625,70 C260.434999,69.5399977 260.34,69.0266695 260.34,68.46 C260.34,67.8933305 260.434999,67.3800023 260.625,66.92 C260.815001,66.4599977 261.079998,66.068335 261.42,65.745 C261.760002,65.4216651 262.163331,65.1733342 262.63,65 C263.096669,64.8266658 263.606664,64.74 264.16,64.74 C264.360001,64.74 264.568332,64.7583331 264.785,64.795 C265.001668,64.8316669 265.214999,64.8899996 265.425,64.97 C265.635001,65.0500004 265.836666,65.156666 266.03,65.29 C266.223334,65.423334 266.396666,65.5866657 266.55,65.78 L265.35,66.76 Z M267.19,68.46 C267.19,67.8933305 267.284999,67.3800023 267.475,66.92 C267.665001,66.4599977 267.929998,66.068335 268.27,65.745 C268.610002,65.4216651 269.013331,65.1733342 269.48,65 C269.946669,64.8266658 270.456664,64.74 271.01,64.74 C271.563336,64.74 272.073331,64.8266658 272.54,65 C273.006669,65.1733342 273.409998,65.4216651 273.75,65.745 C274.090002,66.068335 274.354999,66.4599977 274.545,66.92 C274.735001,67.3800023 274.83,67.8933305 274.83,68.46 C274.83,69.0266695 274.735001,69.5399977 274.545,70 C274.354999,70.4600023 274.090002,70.851665 273.75,71.175 C273.409998,71.498335 273.006669,71.7466658 272.54,71.92 C272.073331,72.0933342 271.563336,72.18 271.01,72.18 C270.456664,72.18 269.946669,72.0933342 269.48,71.92 C269.013331,71.7466658 268.610002,71.498335 268.27,71.175 C267.929998,70.851665 267.665001,70.4600023 267.475,70 C267.284999,69.5399977 267.19,69.0266695 267.19,68.46 Z M268.81,68.46 C268.81,68.793335 268.861666,69.098332 268.965,69.375 C269.068334,69.651668 269.216666,69.8916656 269.41,70.095 C269.603334,70.2983344 269.834999,70.4566661 270.105,70.57 C270.375001,70.6833339 270.676665,70.74 271.01,70.74 C271.343335,70.74 271.644999,70.6833339 271.915,70.57 C272.185001,70.4566661 272.416666,70.2983344 272.61,70.095 C272.803334,69.8916656 272.951666,69.651668 273.055,69.375 C273.158334,69.098332 273.21,68.793335 273.21,68.46 C273.21,68.1333317 273.158334,67.8300014 273.055,67.55 C272.951666,67.2699986 272.803334,67.0283343 272.61,66.825 C272.416666,66.6216656 272.185001,66.4633339 271.915,66.35 C271.644999,66.2366661 271.343335,66.18 271.01,66.18 C270.676665,66.18 270.375001,66.2366661 270.105,66.35 C269.834999,66.4633339 269.603334,66.6216656 269.41,66.825 C269.216666,67.0283343 269.068334,67.2699986 268.965,67.55 C268.861666,67.8300014 268.81,68.1333317 268.81,68.46 Z M275.89,64.92 L278.25,64.92 L279.88,69.54 L279.9,69.54 L281.54,64.92 L283.89,64.92 L283.89,72 L282.33,72 L282.33,66.57 L282.31,66.57 L280.45,72 L279.26,72 L277.47,66.57 L277.45,66.57 L277.45,72 L275.89,72 L275.89,64.92 Z M285.33,64.92 L287.96,64.92 C288.326668,64.92 288.673332,64.953333 289,65.02 C289.326668,65.086667 289.611665,65.2016658 289.855,65.365 C290.098335,65.5283342 290.291666,65.7483319 290.435,66.025 C290.578334,66.3016681 290.65,66.6499979 290.65,67.07 C290.65,67.4833354 290.583334,67.8299986 290.45,68.11 C290.316666,68.3900014 290.133334,68.6133325 289.9,68.78 C289.666666,68.9466675 289.390002,69.0649997 289.07,69.135 C288.749998,69.2050004 288.403335,69.24 288.03,69.24 L286.89,69.24 L286.89,72 L285.33,72 L285.33,64.92 Z M286.89,67.92 L287.93,67.92 C288.070001,67.92 288.204999,67.9066668 288.335,67.88 C288.465001,67.8533332 288.581666,67.8083336 288.685,67.745 C288.788334,67.6816664 288.871666,67.5950005 288.935,67.485 C288.998334,67.3749995 289.03,67.2366675 289.03,67.07 C289.03,66.8899991 288.988334,66.7450006 288.905,66.635 C288.821666,66.5249994 288.715001,66.4400003 288.585,66.38 C288.454999,66.3199997 288.310001,66.2816667 288.15,66.265 C287.989999,66.2483333 287.836667,66.24 287.69,66.24 L286.89,66.24 L286.89,67.92 Z M291.69,64.92 L293.25,64.92 L293.25,70.56 L296.14,70.56 L296.14,72 L291.69,72 L291.69,64.92 Z M297.06,64.92 L301.87,64.92 L301.87,66.36 L298.62,66.36 L298.62,67.68 L301.69,67.68 L301.69,69.12 L298.62,69.12 L298.62,70.56 L302.05,70.56 L302.05,72 L297.06,72 L297.06,64.92 Z M304.67,66.3 L302.65,66.3 L302.65,64.92 L308.25,64.92 L308.25,66.3 L306.23,66.3 L306.23,72 L304.67,72 L304.67,66.3 Z M309.1,64.92 L313.91,64.92 L313.91,66.36 L310.66,66.36 L310.66,67.68 L313.73,67.68 L313.73,69.12 L310.66,69.12 L310.66,70.56 L314.09,70.56 L314.09,72 L309.1,72 L309.1,64.92 Z M315.34,64.92 L317.68,64.92 C318.246669,64.92 318.784997,64.9833327 319.295,65.11 C319.805003,65.2366673 320.249998,65.4416652 320.63,65.725 C321.010002,66.0083348 321.311666,66.3766644 321.535,66.83 C321.758334,67.2833356 321.87,67.8333301 321.87,68.48 C321.87,69.0533362 321.761668,69.5583312 321.545,69.995 C321.328332,70.4316688 321.036669,70.7983318 320.67,71.095 C320.303332,71.3916682 319.880002,71.6166659 319.4,71.77 C318.919998,71.9233341 318.416669,72 317.89,72 L315.34,72 L315.34,64.92 Z M316.9,70.56 L317.71,70.56 C318.070002,70.56 318.404998,70.5233337 318.715,70.45 C319.025002,70.3766663 319.293332,70.2550009 319.52,70.085 C319.746668,69.9149991 319.924999,69.6916681 320.055,69.415 C320.185001,69.1383319 320.25,68.800002 320.25,68.4 C320.25,68.0533316 320.185001,67.7516679 320.055,67.495 C319.924999,67.238332 319.750001,67.0266675 319.53,66.86 C319.309999,66.6933325 319.051668,66.5683337 318.755,66.485 C318.458332,66.4016663 318.146668,66.36 317.82,66.36 L316.9,66.36 L316.9,70.56 Z M332.3,71.5 C331.839998,71.7400012 331.360003,71.9133328 330.86,72.02 C330.359997,72.1266672 329.850003,72.18 329.33,72.18 C328.776664,72.18 328.266669,72.0933342 327.8,71.92 C327.333331,71.7466658 326.930002,71.498335 326.59,71.175 C326.249998,70.851665 325.985001,70.4600023 325.795,70 C325.604999,69.5399977 325.51,69.0266695 325.51,68.46 C325.51,67.8933305 325.604999,67.3800023 325.795,66.92 C325.985001,66.4599977 326.249998,66.068335 326.59,65.745 C326.930002,65.4216651 327.333331,65.1733342 327.8,65 C328.266669,64.8266658 328.776664,64.74 329.33,64.74 C329.896669,64.74 330.418331,64.8083326 330.895,64.945 C331.371669,65.0816674 331.789998,65.316665 332.15,65.65 L331.05,66.85 C330.836666,66.6299989 330.596668,66.4633339 330.33,66.35 C330.063332,66.2366661 329.730002,66.18 329.33,66.18 C328.996665,66.18 328.695001,66.2366661 328.425,66.35 C328.154999,66.4633339 327.923334,66.6216656 327.73,66.825 C327.536666,67.0283343 327.388334,67.2699986 327.285,67.55 C327.181666,67.8300014 327.13,68.1333317 327.13,68.46 C327.13,68.793335 327.181666,69.098332 327.285,69.375 C327.388334,69.651668 327.536666,69.8916656 327.73,70.095 C327.923334,70.2983344 328.154999,70.4566661 328.425,70.57 C328.695001,70.6833339 328.996665,70.74 329.33,70.74 C329.670002,70.74 329.963332,70.701667 330.21,70.625 C330.456668,70.548333 330.653333,70.4700004 330.8,70.39 L330.8,69.24 L329.53,69.24 L329.53,67.8 L332.3,67.8 L332.3,71.5 Z M333.29,68.46 C333.29,67.8933305 333.384999,67.3800023 333.575,66.92 C333.765001,66.4599977 334.029998,66.068335 334.37,65.745 C334.710002,65.4216651 335.113331,65.1733342 335.58,65 C336.046669,64.8266658 336.556664,64.74 337.11,64.74 C337.663336,64.74 338.173331,64.8266658 338.64,65 C339.106669,65.1733342 339.509998,65.4216651 339.85,65.745 C340.190002,66.068335 340.454999,66.4599977 340.645,66.92 C340.835001,67.3800023 340.93,67.8933305 340.93,68.46 C340.93,69.0266695 340.835001,69.5399977 340.645,70 C340.454999,70.4600023 340.190002,70.851665 339.85,71.175 C339.509998,71.498335 339.106669,71.7466658 338.64,71.92 C338.173331,72.0933342 337.663336,72.18 337.11,72.18 C336.556664,72.18 336.046669,72.0933342 335.58,71.92 C335.113331,71.7466658 334.710002,71.498335 334.37,71.175 C334.029998,70.851665 333.765001,70.4600023 333.575,70 C333.384999,69.5399977 333.29,69.0266695 333.29,68.46 Z M334.91,68.46 C334.91,68.793335 334.961666,69.098332 335.065,69.375 C335.168334,69.651668 335.316666,69.8916656 335.51,70.095 C335.703334,70.2983344 335.934999,70.4566661 336.205,70.57 C336.475001,70.6833339 336.776665,70.74 337.11,70.74 C337.443335,70.74 337.744999,70.6833339 338.015,70.57 C338.285001,70.4566661 338.516666,70.2983344 338.71,70.095 C338.903334,69.8916656 339.051666,69.651668 339.155,69.375 C339.258334,69.098332 339.31,68.793335 339.31,68.46 C339.31,68.1333317 339.258334,67.8300014 339.155,67.55 C339.051666,67.2699986 338.903334,67.0283343 338.71,66.825 C338.516666,66.6216656 338.285001,66.4633339 338.015,66.35 C337.744999,66.2366661 337.443335,66.18 337.11,66.18 C336.776665,66.18 336.475001,66.2366661 336.205,66.35 C335.934999,66.4633339 335.703334,66.6216656 335.51,66.825 C335.316666,67.0283343 335.168334,67.2699986 335.065,67.55 C334.961666,67.8300014 334.91,68.1333317 334.91,68.46 Z M344.32,64.92 L345.61,64.92 L348.69,72 L346.93,72 L346.32,70.5 L343.57,70.5 L342.98,72 L341.26,72 L344.32,64.92 Z M344.92,66.98 L344.06,69.18 L345.79,69.18 L344.92,66.98 Z M349.46,64.92 L351.02,64.92 L351.02,70.56 L353.91,70.56 L353.91,72 L349.46,72 L349.46,64.92 Z M358.27,66.65 C358.143333,66.4899992 357.971668,66.371667 357.755,66.295 C357.538332,66.218333 357.333334,66.18 357.14,66.18 C357.026666,66.18 356.910001,66.1933332 356.79,66.22 C356.669999,66.2466668 356.556667,66.2883331 356.45,66.345 C356.343333,66.4016669 356.256667,66.4766662 356.19,66.57 C356.123333,66.6633338 356.09,66.776666 356.09,66.91 C356.09,67.1233344 356.169999,67.2866661 356.33,67.4 C356.490001,67.5133339 356.691665,67.6099996 356.935,67.69 C357.178335,67.7700004 357.439999,67.8499996 357.72,67.93 C358.000001,68.0100004 358.261665,68.1233326 358.505,68.27 C358.748335,68.4166674 358.949999,68.6133321 359.11,68.86 C359.270001,69.1066679 359.35,69.4366646 359.35,69.85 C359.35,70.2433353 359.276667,70.5866652 359.13,70.88 C358.983333,71.1733348 358.785001,71.4166657 358.535,71.61 C358.284999,71.8033343 357.995002,71.9466662 357.665,72.04 C357.334998,72.1333338 356.986668,72.18 356.62,72.18 C356.159998,72.18 355.733335,72.1100007 355.34,71.97 C354.946665,71.8299993 354.580002,71.6033349 354.24,71.29 L355.35,70.07 C355.510001,70.2833344 355.711665,70.4483328 355.955,70.565 C356.198335,70.6816673 356.449999,70.74 356.71,70.74 C356.836667,70.74 356.964999,70.7250001 357.095,70.695 C357.225001,70.6649999 357.341666,70.6200003 357.445,70.56 C357.548334,70.4999997 357.631666,70.4233338 357.695,70.33 C357.758334,70.2366662 357.79,70.1266673 357.79,70 C357.79,69.7866656 357.708334,69.6183339 357.545,69.495 C357.381666,69.3716661 357.176668,69.2666671 356.93,69.18 C356.683332,69.0933329 356.416668,69.0066671 356.13,68.92 C355.843332,68.8333329 355.576668,68.7166674 355.33,68.57 C355.083332,68.4233326 354.878334,68.2300012 354.715,67.99 C354.551666,67.7499988 354.47,67.4333353 354.47,67.04 C354.47,66.6599981 354.544999,66.3266681 354.695,66.04 C354.845001,65.7533319 355.044999,65.5133343 355.295,65.32 C355.545001,65.1266657 355.833332,64.9816671 356.16,64.885 C356.486668,64.7883329 356.823332,64.74 357.17,64.74 C357.570002,64.74 357.956665,64.7966661 358.33,64.91 C358.703335,65.0233339 359.039998,65.213332 359.34,65.48 L358.27,66.65 Z" id="COMPLETED-GOALS" fill="#FFFFFF"></path>
                <path d="M-7.65,201.76 C-7.8033341,201.573332 -7.99166555,201.430001 -8.215,201.33 C-8.43833445,201.229999 -8.6966652,201.18 -8.99,201.18 C-9.2833348,201.18 -9.55499875,201.236666 -9.805,201.35 C-10.0550013,201.463334 -10.2716658,201.621666 -10.455,201.825 C-10.6383342,202.028334 -10.7816661,202.269999 -10.885,202.55 C-10.9883339,202.830001 -11.04,203.133332 -11.04,203.46 C-11.04,203.793335 -10.9883339,204.098332 -10.885,204.375 C-10.7816661,204.651668 -10.6400009,204.891666 -10.46,205.095 C-10.2799991,205.298334 -10.0683345,205.456666 -9.825,205.57 C-9.58166545,205.683334 -9.3200014,205.74 -9.04,205.74 C-8.7199984,205.74 -8.4366679,205.673334 -8.19,205.54 C-7.9433321,205.406666 -7.7400008,205.220001 -7.58,204.98 L-6.28,205.95 C-6.5800015,206.370002 -6.9599977,206.679999 -7.42,206.88 C-7.8800023,207.080001 -8.3533309,207.18 -8.84,207.18 C-9.3933361,207.18 -9.903331,207.093334 -10.37,206.92 C-10.836669,206.746666 -11.2399983,206.498335 -11.58,206.175 C-11.9200017,205.851665 -12.1849991,205.460002 -12.375,205 C-12.5650009,204.539998 -12.66,204.026669 -12.66,203.46 C-12.66,202.89333 -12.5650009,202.380002 -12.375,201.92 C-12.1849991,201.459998 -11.9200017,201.068335 -11.58,200.745 C-11.2399983,200.421665 -10.836669,200.173334 -10.37,200 C-9.903331,199.826666 -9.3933361,199.74 -8.84,199.74 C-8.639999,199.74 -8.43166775,199.758333 -8.215,199.795 C-7.99833225,199.831667 -7.78500105,199.89 -7.575,199.97 C-7.36499895,200.05 -7.1633343,200.156666 -6.97,200.29 C-6.7766657,200.423334 -6.6033341,200.586666 -6.45,200.78 L-7.65,201.76 Z M-5.81,203.46 C-5.81,202.89333 -5.71500095,202.380002 -5.525,201.92 C-5.33499905,201.459998 -5.0700017,201.068335 -4.73,200.745 C-4.3899983,200.421665 -3.986669,200.173334 -3.52,200 C-3.053331,199.826666 -2.5433361,199.74 -1.99,199.74 C-1.4366639,199.74 -0.926669,199.826666 -0.46,200 C0.006669,200.173334 0.4099983,200.421665 0.75,200.745 C1.0900017,201.068335 1.35499905,201.459998 1.545,201.92 C1.73500095,202.380002 1.83,202.89333 1.83,203.46 C1.83,204.026669 1.73500095,204.539998 1.545,205 C1.35499905,205.460002 1.0900017,205.851665 0.75,206.175 C0.4099983,206.498335 0.006669,206.746666 -0.46,206.92 C-0.926669,207.093334 -1.4366639,207.18 -1.99,207.18 C-2.5433361,207.18 -3.053331,207.093334 -3.52,206.92 C-3.986669,206.746666 -4.3899983,206.498335 -4.73,206.175 C-5.0700017,205.851665 -5.33499905,205.460002 -5.525,205 C-5.71500095,204.539998 -5.81,204.026669 -5.81,203.46 Z M-4.19,203.46 C-4.19,203.793335 -4.13833385,204.098332 -4.035,204.375 C-3.93166615,204.651668 -3.7833343,204.891666 -3.59,205.095 C-3.3966657,205.298334 -3.16500135,205.456666 -2.895,205.57 C-2.62499865,205.683334 -2.323335,205.74 -1.99,205.74 C-1.656665,205.74 -1.35500135,205.683334 -1.085,205.57 C-0.81499865,205.456666 -0.5833343,205.298334 -0.39,205.095 C-0.1966657,204.891666 -0.04833385,204.651668 0.055,204.375 C0.15833385,204.098332 0.21,203.793335 0.21,203.46 C0.21,203.133332 0.15833385,202.830001 0.055,202.55 C-0.04833385,202.269999 -0.1966657,202.028334 -0.39,201.825 C-0.5833343,201.621666 -0.81499865,201.463334 -1.085,201.35 C-1.35500135,201.236666 -1.656665,201.18 -1.99,201.18 C-2.323335,201.18 -2.62499865,201.236666 -2.895,201.35 C-3.16500135,201.463334 -3.3966657,201.621666 -3.59,201.825 C-3.7833343,202.028334 -3.93166615,202.269999 -4.035,202.55 C-4.13833385,202.830001 -4.19,203.133332 -4.19,203.46 Z M2.89,199.92 L5.25,199.92 L6.88,204.54 L6.9,204.54 L8.54,199.92 L10.89,199.92 L10.89,207 L9.33,207 L9.33,201.57 L9.31,201.57 L7.45,207 L6.26,207 L4.47,201.57 L4.45,201.57 L4.45,207 L2.89,207 L2.89,199.92 Z M12.33,199.92 L14.96,199.92 C15.3266685,199.92 15.6733317,199.953333 16,200.02 C16.3266683,200.086667 16.6116654,200.201666 16.855,200.365 C17.0983345,200.528334 17.2916659,200.748332 17.435,201.025 C17.578334,201.301668 17.65,201.649998 17.65,202.07 C17.65,202.483335 17.583334,202.829999 17.45,203.11 C17.316666,203.390001 17.1333345,203.613333 16.9,203.78 C16.6666655,203.946667 16.3900016,204.065 16.07,204.135 C15.7499984,204.205 15.4033352,204.24 15.03,204.24 L13.89,204.24 L13.89,207 L12.33,207 L12.33,199.92 Z M13.89,202.92 L14.93,202.92 C15.0700007,202.92 15.2049994,202.906667 15.335,202.88 C15.4650007,202.853333 15.5816661,202.808334 15.685,202.745 C15.7883339,202.681666 15.8716663,202.595001 15.935,202.485 C15.9983336,202.374999 16.03,202.236668 16.03,202.07 C16.03,201.889999 15.9883338,201.745001 15.905,201.635 C15.8216662,201.524999 15.7150007,201.44 15.585,201.38 C15.4549994,201.32 15.3100008,201.281667 15.15,201.265 C14.9899992,201.248333 14.8366674,201.24 14.69,201.24 L13.89,201.24 L13.89,202.92 Z M18.69,199.92 L20.25,199.92 L20.25,205.56 L23.14,205.56 L23.14,207 L18.69,207 L18.69,199.92 Z M24.06,199.92 L28.87,199.92 L28.87,201.36 L25.62,201.36 L25.62,202.68 L28.69,202.68 L28.69,204.12 L25.62,204.12 L25.62,205.56 L29.05,205.56 L29.05,207 L24.06,207 L24.06,199.92 Z M31.67,201.3 L29.65,201.3 L29.65,199.92 L35.25,199.92 L35.25,201.3 L33.23,201.3 L33.23,207 L31.67,207 L31.67,201.3 Z M36.1,199.92 L40.91,199.92 L40.91,201.36 L37.66,201.36 L37.66,202.68 L40.73,202.68 L40.73,204.12 L37.66,204.12 L37.66,205.56 L41.09,205.56 L41.09,207 L36.1,207 L36.1,199.92 Z M42.34,199.92 L44.68,199.92 C45.2466695,199.92 45.7849975,199.983333 46.295,200.11 C46.8050025,200.236667 47.2499981,200.441665 47.63,200.725 C48.0100019,201.008335 48.3116655,201.376664 48.535,201.83 C48.7583344,202.283336 48.87,202.83333 48.87,203.48 C48.87,204.053336 48.7616677,204.558331 48.545,204.995 C48.3283322,205.431669 48.0366685,205.798332 47.67,206.095 C47.3033315,206.391668 46.8800024,206.616666 46.4,206.77 C45.9199976,206.923334 45.4166693,207 44.89,207 L42.34,207 L42.34,199.92 Z M43.9,205.56 L44.71,205.56 C45.0700018,205.56 45.4049985,205.523334 45.715,205.45 C46.0250015,205.376666 46.2933322,205.255001 46.52,205.085 C46.7466678,204.914999 46.9249993,204.691668 47.055,204.415 C47.1850007,204.138332 47.25,203.800002 47.25,203.4 C47.25,203.053332 47.1850007,202.751668 47.055,202.495 C46.9249993,202.238332 46.7500011,202.026668 46.53,201.86 C46.3099989,201.693332 46.0516681,201.568334 45.755,201.485 C45.4583318,201.401666 45.1466683,201.36 44.82,201.36 L43.9,201.36 L43.9,205.56 Z M59.3,206.5 C58.8399977,206.740001 58.3600025,206.913333 57.86,207.02 C57.3599975,207.126667 56.8500026,207.18 56.33,207.18 C55.7766639,207.18 55.266669,207.093334 54.8,206.92 C54.333331,206.746666 53.9300017,206.498335 53.59,206.175 C53.2499983,205.851665 52.9850009,205.460002 52.795,205 C52.6049991,204.539998 52.51,204.026669 52.51,203.46 C52.51,202.89333 52.6049991,202.380002 52.795,201.92 C52.9850009,201.459998 53.2499983,201.068335 53.59,200.745 C53.9300017,200.421665 54.333331,200.173334 54.8,200 C55.266669,199.826666 55.7766639,199.74 56.33,199.74 C56.8966695,199.74 57.4183309,199.808333 57.895,199.945 C58.371669,200.081667 58.7899982,200.316665 59.15,200.65 L58.05,201.85 C57.8366656,201.629999 57.596668,201.463334 57.33,201.35 C57.063332,201.236666 56.730002,201.18 56.33,201.18 C55.996665,201.18 55.6950013,201.236666 55.425,201.35 C55.1549986,201.463334 54.9233343,201.621666 54.73,201.825 C54.5366657,202.028334 54.3883338,202.269999 54.285,202.55 C54.1816661,202.830001 54.13,203.133332 54.13,203.46 C54.13,203.793335 54.1816661,204.098332 54.285,204.375 C54.3883338,204.651668 54.5366657,204.891666 54.73,205.095 C54.9233343,205.298334 55.1549986,205.456666 55.425,205.57 C55.6950013,205.683334 55.996665,205.74 56.33,205.74 C56.6700017,205.74 56.9633321,205.701667 57.21,205.625 C57.4566679,205.548333 57.6533326,205.47 57.8,205.39 L57.8,204.24 L56.53,204.24 L56.53,202.8 L59.3,202.8 L59.3,206.5 Z M60.29,203.46 C60.29,202.89333 60.384999,202.380002 60.575,201.92 C60.7650009,201.459998 61.0299983,201.068335 61.37,200.745 C61.7100017,200.421665 62.113331,200.173334 62.58,200 C63.046669,199.826666 63.5566639,199.74 64.11,199.74 C64.6633361,199.74 65.173331,199.826666 65.64,200 C66.106669,200.173334 66.5099983,200.421665 66.85,200.745 C67.1900017,201.068335 67.454999,201.459998 67.645,201.92 C67.8350009,202.380002 67.93,202.89333 67.93,203.46 C67.93,204.026669 67.8350009,204.539998 67.645,205 C67.454999,205.460002 67.1900017,205.851665 66.85,206.175 C66.5099983,206.498335 66.106669,206.746666 65.64,206.92 C65.173331,207.093334 64.6633361,207.18 64.11,207.18 C63.5566639,207.18 63.046669,207.093334 62.58,206.92 C62.113331,206.746666 61.7100017,206.498335 61.37,206.175 C61.0299983,205.851665 60.7650009,205.460002 60.575,205 C60.384999,204.539998 60.29,204.026669 60.29,203.46 Z M61.91,203.46 C61.91,203.793335 61.9616661,204.098332 62.065,204.375 C62.1683338,204.651668 62.3166657,204.891666 62.51,205.095 C62.7033343,205.298334 62.9349986,205.456666 63.205,205.57 C63.4750013,205.683334 63.776665,205.74 64.11,205.74 C64.443335,205.74 64.7449986,205.683334 65.015,205.57 C65.2850013,205.456666 65.5166657,205.298334 65.71,205.095 C65.9033343,204.891666 66.0516661,204.651668 66.155,204.375 C66.2583338,204.098332 66.31,203.793335 66.31,203.46 C66.31,203.133332 66.2583338,202.830001 66.155,202.55 C66.0516661,202.269999 65.9033343,202.028334 65.71,201.825 C65.5166657,201.621666 65.2850013,201.463334 65.015,201.35 C64.7449986,201.236666 64.443335,201.18 64.11,201.18 C63.776665,201.18 63.4750013,201.236666 63.205,201.35 C62.9349986,201.463334 62.7033343,201.621666 62.51,201.825 C62.3166657,202.028334 62.1683338,202.269999 62.065,202.55 C61.9616661,202.830001 61.91,203.133332 61.91,203.46 Z M71.32,199.92 L72.61,199.92 L75.69,207 L73.93,207 L73.32,205.5 L70.57,205.5 L69.98,207 L68.26,207 L71.32,199.92 Z M71.92,201.98 L71.06,204.18 L72.79,204.18 L71.92,201.98 Z M76.46,199.92 L78.02,199.92 L78.02,205.56 L80.91,205.56 L80.91,207 L76.46,207 L76.46,199.92 Z M85.27,201.65 C85.1433327,201.489999 84.9716677,201.371667 84.755,201.295 C84.5383322,201.218333 84.3333343,201.18 84.14,201.18 C84.0266661,201.18 83.9100006,201.193333 83.79,201.22 C83.6699994,201.246667 83.5566672,201.288333 83.45,201.345 C83.3433328,201.401667 83.256667,201.476666 83.19,201.57 C83.123333,201.663334 83.09,201.776666 83.09,201.91 C83.09,202.123334 83.1699992,202.286666 83.33,202.4 C83.4900008,202.513334 83.6916654,202.61 83.935,202.69 C84.1783345,202.77 84.4399986,202.85 84.72,202.93 C85.0000014,203.01 85.2616654,203.123333 85.505,203.27 C85.7483345,203.416667 85.9499992,203.613332 86.11,203.86 C86.2700008,204.106668 86.35,204.436665 86.35,204.85 C86.35,205.243335 86.2766674,205.586665 86.13,205.88 C85.9833326,206.173335 85.7850012,206.416666 85.535,206.61 C85.2849987,206.803334 84.9950016,206.946666 84.665,207.04 C84.3349983,207.133334 83.9866685,207.18 83.62,207.18 C83.1599977,207.18 82.7333353,207.110001 82.34,206.97 C81.9466647,206.829999 81.5800017,206.603335 81.24,206.29 L82.35,205.07 C82.5100008,205.283334 82.7116654,205.448333 82.955,205.565 C83.1983345,205.681667 83.4499987,205.74 83.71,205.74 C83.8366673,205.74 83.9649993,205.725 84.095,205.695 C84.2250006,205.665 84.3416661,205.62 84.445,205.56 C84.5483338,205.5 84.6316663,205.423334 84.695,205.33 C84.7583336,205.236666 84.79,205.126667 84.79,205 C84.79,204.786666 84.7083341,204.618334 84.545,204.495 C84.3816658,204.371666 84.1766679,204.266667 83.93,204.18 C83.6833321,204.093333 83.4166681,204.006667 83.13,203.92 C82.8433319,203.833333 82.5766679,203.716667 82.33,203.57 C82.0833321,203.423333 81.8783341,203.230001 81.715,202.99 C81.5516658,202.749999 81.47,202.433335 81.47,202.04 C81.47,201.659998 81.5449992,201.326668 81.695,201.04 C81.8450007,200.753332 82.0449987,200.513334 82.295,200.32 C82.5450012,200.126666 82.8333317,199.981667 83.16,199.885 C83.4866683,199.788333 83.8233316,199.74 84.17,199.74 C84.570002,199.74 84.9566648,199.796666 85.33,199.91 C85.7033352,200.023334 86.0399985,200.213332 86.34,200.48 L85.27,201.65 Z" id="COMPLETED-GOALS-Copy" fill="#767D97" transform="translate(36.845000, 203.460000) rotate(-90.000000) translate(-36.845000, -203.460000) "></path>
                <path d="M113.552,278.776 L116.96,275.392 C117.080001,275.279999 117.195999,275.158001 117.308,275.026 C117.420001,274.893999 117.52,274.756001 117.608,274.612 C117.696,274.467999 117.766,274.316001 117.818,274.156 C117.87,273.995999 117.896,273.828001 117.896,273.652 C117.896,273.443999 117.858,273.256001 117.782,273.088 C117.706,272.919999 117.602001,272.778001 117.47,272.662 C117.337999,272.545999 117.182001,272.456 117.002,272.392 C116.821999,272.328 116.632001,272.296 116.432,272.296 C116.015998,272.296 115.672001,272.411999 115.4,272.644 C115.127999,272.876001 114.956,273.195998 114.884,273.604 L113.636,273.496 C113.692,273.119998 113.801999,272.794001 113.966,272.518 C114.130001,272.241999 114.333999,272.012001 114.578,271.828 C114.822001,271.643999 115.101998,271.508 115.418,271.42 C115.734002,271.332 116.075998,271.288 116.444,271.288 C116.812002,271.288 117.157998,271.338 117.482,271.438 C117.806002,271.538001 118.089999,271.685999 118.334,271.882 C118.578001,272.078001 118.769999,272.321999 118.91,272.614 C119.050001,272.906001 119.12,273.247998 119.12,273.64 C119.12,273.920001 119.078,274.181999 118.994,274.426 C118.91,274.670001 118.800001,274.899999 118.664,275.116 C118.527999,275.332001 118.372001,275.535999 118.196,275.728 C118.019999,275.920001 117.836001,276.107999 117.644,276.292 L114.848,278.992 L119.12,278.992 L119.12,280 L113.552,280 L113.552,278.776 Z M120.08,275.752 C120.08,275.439998 120.096,275.116002 120.128,274.78 C120.16,274.443998 120.218,274.114002 120.302,273.79 C120.386,273.465998 120.497999,273.156001 120.638,272.86 C120.778001,272.563999 120.957999,272.306001 121.178,272.086 C121.398001,271.865999 121.657999,271.690001 121.958,271.558 C122.258002,271.425999 122.607998,271.36 123.008,271.36 C123.408002,271.36 123.757998,271.425999 124.058,271.558 C124.358002,271.690001 124.617999,271.865999 124.838,272.086 C125.058001,272.306001 125.237999,272.563999 125.378,272.86 C125.518001,273.156001 125.63,273.465998 125.714,273.79 C125.798,274.114002 125.856,274.443998 125.888,274.78 C125.92,275.116002 125.936,275.439998 125.936,275.752 C125.936,276.200002 125.896,276.679997 125.816,277.192 C125.736,277.704003 125.588001,278.179998 125.372,278.62 C125.155999,279.060002 124.858002,279.423999 124.478,279.712 C124.097998,280.000001 123.608003,280.144 123.008,280.144 C122.407997,280.144 121.918002,280.000001 121.538,279.712 C121.157998,279.423999 120.860001,279.060002 120.644,278.62 C120.427999,278.179998 120.28,277.704003 120.2,277.192 C120.12,276.679997 120.08,276.200002 120.08,275.752 Z M121.232,275.752 C121.232,276.032001 121.25,276.363998 121.286,276.748 C121.322,277.132002 121.399999,277.501998 121.52,277.858 C121.640001,278.214002 121.817999,278.515999 122.054,278.764 C122.290001,279.012001 122.607998,279.136 123.008,279.136 C123.408002,279.136 123.725999,279.012001 123.962,278.764 C124.198001,278.515999 124.375999,278.214002 124.496,277.858 C124.616001,277.501998 124.694,277.132002 124.73,276.748 C124.766,276.363998 124.784,276.032001 124.784,275.752 C124.784,275.559999 124.778,275.342001 124.766,275.098 C124.754,274.853999 124.726,274.606001 124.682,274.354 C124.638,274.101999 124.576,273.858001 124.496,273.622 C124.416,273.385999 124.310001,273.174001 124.178,272.986 C124.045999,272.797999 123.884001,272.648001 123.692,272.536 C123.499999,272.423999 123.272001,272.368 123.008,272.368 C122.743999,272.368 122.516001,272.423999 122.324,272.536 C122.131999,272.648001 121.970001,272.797999 121.838,272.986 C121.705999,273.174001 121.6,273.385999 121.52,273.622 C121.44,273.858001 121.378,274.101999 121.334,274.354 C121.29,274.606001 121.262,274.853999 121.25,275.098 C121.238,275.342001 121.232,275.559999 121.232,275.752 Z M129.584,272.824 L128.024,274.264 L127.352,273.46 L129.716,271.504 L130.736,271.504 L130.736,280 L129.584,280 L129.584,272.824 Z M137.048,278.128 L133.424,278.128 L133.424,276.952 L136.808,271.504 L138.2,271.504 L138.2,277.12 L139.4,277.12 L139.4,278.128 L138.2,278.128 L138.2,280 L137.048,280 L137.048,278.128 Z M137.048,272.872 L137.024,272.872 L134.432,277.12 L137.048,277.12 L137.048,272.872 Z" id="2014" fill="#767D97" opacity="0.455165578"></path>
                <path d="M343.552,278.776 L346.96,275.392 C347.080001,275.279999 347.195999,275.158001 347.308,275.026 C347.420001,274.893999 347.52,274.756001 347.608,274.612 C347.696,274.467999 347.766,274.316001 347.818,274.156 C347.87,273.995999 347.896,273.828001 347.896,273.652 C347.896,273.443999 347.858,273.256001 347.782,273.088 C347.706,272.919999 347.602001,272.778001 347.47,272.662 C347.337999,272.545999 347.182001,272.456 347.002,272.392 C346.821999,272.328 346.632001,272.296 346.432,272.296 C346.015998,272.296 345.672001,272.411999 345.4,272.644 C345.127999,272.876001 344.956,273.195998 344.884,273.604 L343.636,273.496 C343.692,273.119998 343.801999,272.794001 343.966,272.518 C344.130001,272.241999 344.333999,272.012001 344.578,271.828 C344.822001,271.643999 345.101998,271.508 345.418,271.42 C345.734002,271.332 346.075998,271.288 346.444,271.288 C346.812002,271.288 347.157998,271.338 347.482,271.438 C347.806002,271.538001 348.089999,271.685999 348.334,271.882 C348.578001,272.078001 348.769999,272.321999 348.91,272.614 C349.050001,272.906001 349.12,273.247998 349.12,273.64 C349.12,273.920001 349.078,274.181999 348.994,274.426 C348.91,274.670001 348.800001,274.899999 348.664,275.116 C348.527999,275.332001 348.372001,275.535999 348.196,275.728 C348.019999,275.920001 347.836001,276.107999 347.644,276.292 L344.848,278.992 L349.12,278.992 L349.12,280 L343.552,280 L343.552,278.776 Z M350.08,275.752 C350.08,275.439998 350.096,275.116002 350.128,274.78 C350.16,274.443998 350.218,274.114002 350.302,273.79 C350.386,273.465998 350.497999,273.156001 350.638,272.86 C350.778001,272.563999 350.957999,272.306001 351.178,272.086 C351.398001,271.865999 351.657999,271.690001 351.958,271.558 C352.258001,271.425999 352.607998,271.36 353.008,271.36 C353.408002,271.36 353.757998,271.425999 354.058,271.558 C354.358002,271.690001 354.617999,271.865999 354.838,272.086 C355.058001,272.306001 355.237999,272.563999 355.378,272.86 C355.518001,273.156001 355.63,273.465998 355.714,273.79 C355.798,274.114002 355.856,274.443998 355.888,274.78 C355.92,275.116002 355.936,275.439998 355.936,275.752 C355.936,276.200002 355.896,276.679997 355.816,277.192 C355.736,277.704003 355.588001,278.179998 355.372,278.62 C355.155999,279.060002 354.858002,279.423999 354.478,279.712 C354.097998,280.000001 353.608003,280.144 353.008,280.144 C352.407997,280.144 351.918002,280.000001 351.538,279.712 C351.157998,279.423999 350.860001,279.060002 350.644,278.62 C350.427999,278.179998 350.28,277.704003 350.2,277.192 C350.12,276.679997 350.08,276.200002 350.08,275.752 Z M351.232,275.752 C351.232,276.032001 351.25,276.363998 351.286,276.748 C351.322,277.132002 351.399999,277.501998 351.52,277.858 C351.640001,278.214002 351.817999,278.515999 352.054,278.764 C352.290001,279.012001 352.607998,279.136 353.008,279.136 C353.408002,279.136 353.725999,279.012001 353.962,278.764 C354.198001,278.515999 354.375999,278.214002 354.496,277.858 C354.616001,277.501998 354.694,277.132002 354.73,276.748 C354.766,276.363998 354.784,276.032001 354.784,275.752 C354.784,275.559999 354.778,275.342001 354.766,275.098 C354.754,274.853999 354.726,274.606001 354.682,274.354 C354.638,274.101999 354.576,273.858001 354.496,273.622 C354.416,273.385999 354.310001,273.174001 354.178,272.986 C354.045999,272.797999 353.884001,272.648001 353.692,272.536 C353.499999,272.423999 353.272001,272.368 353.008,272.368 C352.743999,272.368 352.516001,272.423999 352.324,272.536 C352.131999,272.648001 351.970001,272.797999 351.838,272.986 C351.705999,273.174001 351.6,273.385999 351.52,273.622 C351.44,273.858001 351.378,274.101999 351.334,274.354 C351.29,274.606001 351.262,274.853999 351.25,275.098 C351.238,275.342001 351.232,275.559999 351.232,275.752 Z M359.584,272.824 L358.024,274.264 L357.352,273.46 L359.716,271.504 L360.736,271.504 L360.736,280 L359.584,280 L359.584,272.824 Z M367.624,272.512 L363.52,272.512 L363.52,271.504 L368.86,271.504 L368.86,272.488 L365.476,280 L364.18,280 L367.624,272.512 Z" id="2017" fill="#767D97" opacity="0.455165578"></path>
                <path d="M268.552,278.776 L271.96,275.392 C272.080001,275.279999 272.195999,275.158001 272.308,275.026 C272.420001,274.893999 272.52,274.756001 272.608,274.612 C272.696,274.467999 272.766,274.316001 272.818,274.156 C272.87,273.995999 272.896,273.828001 272.896,273.652 C272.896,273.443999 272.858,273.256001 272.782,273.088 C272.706,272.919999 272.602001,272.778001 272.47,272.662 C272.337999,272.545999 272.182001,272.456 272.002,272.392 C271.821999,272.328 271.632001,272.296 271.432,272.296 C271.015998,272.296 270.672001,272.411999 270.4,272.644 C270.127999,272.876001 269.956,273.195998 269.884,273.604 L268.636,273.496 C268.692,273.119998 268.801999,272.794001 268.966,272.518 C269.130001,272.241999 269.333999,272.012001 269.578,271.828 C269.822001,271.643999 270.101998,271.508 270.418,271.42 C270.734002,271.332 271.075998,271.288 271.444,271.288 C271.812002,271.288 272.157998,271.338 272.482,271.438 C272.806002,271.538001 273.089999,271.685999 273.334,271.882 C273.578001,272.078001 273.769999,272.321999 273.91,272.614 C274.050001,272.906001 274.12,273.247998 274.12,273.64 C274.12,273.920001 274.078,274.181999 273.994,274.426 C273.91,274.670001 273.800001,274.899999 273.664,275.116 C273.527999,275.332001 273.372001,275.535999 273.196,275.728 C273.019999,275.920001 272.836001,276.107999 272.644,276.292 L269.848,278.992 L274.12,278.992 L274.12,280 L268.552,280 L268.552,278.776 Z M275.08,275.752 C275.08,275.439998 275.096,275.116002 275.128,274.78 C275.16,274.443998 275.218,274.114002 275.302,273.79 C275.386,273.465998 275.497999,273.156001 275.638,272.86 C275.778001,272.563999 275.957999,272.306001 276.178,272.086 C276.398001,271.865999 276.657999,271.690001 276.958,271.558 C277.258001,271.425999 277.607998,271.36 278.008,271.36 C278.408002,271.36 278.757998,271.425999 279.058,271.558 C279.358002,271.690001 279.617999,271.865999 279.838,272.086 C280.058001,272.306001 280.237999,272.563999 280.378,272.86 C280.518001,273.156001 280.63,273.465998 280.714,273.79 C280.798,274.114002 280.856,274.443998 280.888,274.78 C280.92,275.116002 280.936,275.439998 280.936,275.752 C280.936,276.200002 280.896,276.679997 280.816,277.192 C280.736,277.704003 280.588001,278.179998 280.372,278.62 C280.155999,279.060002 279.858002,279.423999 279.478,279.712 C279.097998,280.000001 278.608003,280.144 278.008,280.144 C277.407997,280.144 276.918002,280.000001 276.538,279.712 C276.157998,279.423999 275.860001,279.060002 275.644,278.62 C275.427999,278.179998 275.28,277.704003 275.2,277.192 C275.12,276.679997 275.08,276.200002 275.08,275.752 Z M276.232,275.752 C276.232,276.032001 276.25,276.363998 276.286,276.748 C276.322,277.132002 276.399999,277.501998 276.52,277.858 C276.640001,278.214002 276.817999,278.515999 277.054,278.764 C277.290001,279.012001 277.607998,279.136 278.008,279.136 C278.408002,279.136 278.725999,279.012001 278.962,278.764 C279.198001,278.515999 279.375999,278.214002 279.496,277.858 C279.616001,277.501998 279.694,277.132002 279.73,276.748 C279.766,276.363998 279.784,276.032001 279.784,275.752 C279.784,275.559999 279.778,275.342001 279.766,275.098 C279.754,274.853999 279.726,274.606001 279.682,274.354 C279.638,274.101999 279.576,273.858001 279.496,273.622 C279.416,273.385999 279.310001,273.174001 279.178,272.986 C279.045999,272.797999 278.884001,272.648001 278.692,272.536 C278.499999,272.423999 278.272001,272.368 278.008,272.368 C277.743999,272.368 277.516001,272.423999 277.324,272.536 C277.131999,272.648001 276.970001,272.797999 276.838,272.986 C276.705999,273.174001 276.6,273.385999 276.52,273.622 C276.44,273.858001 276.378,274.101999 276.334,274.354 C276.29,274.606001 276.262,274.853999 276.25,275.098 C276.238,275.342001 276.232,275.559999 276.232,275.752 Z M284.584,272.824 L283.024,274.264 L282.352,273.46 L284.716,271.504 L285.736,271.504 L285.736,280 L284.584,280 L284.584,272.824 Z M290.656,274.792 L290.704,274.792 C290.968001,274.663999 291.279998,274.6 291.64,274.6 C291.944002,274.6 292.251998,274.651999 292.564,274.756 C292.876002,274.860001 293.157999,275.021999 293.41,275.242 C293.662001,275.462001 293.867999,275.741998 294.028,276.082 C294.188001,276.422002 294.268,276.823998 294.268,277.288 C294.268,277.760002 294.190001,278.173998 294.034,278.53 C293.877999,278.886002 293.668001,279.183999 293.404,279.424 C293.139999,279.664001 292.832002,279.843999 292.48,279.964 C292.127998,280.084001 291.752002,280.144 291.352,280.144 C290.951998,280.144 290.576002,280.080001 290.224,279.952 C289.871998,279.823999 289.564001,279.640001 289.3,279.4 C289.035999,279.159999 288.826001,278.872002 288.67,278.536 C288.513999,278.199998 288.436,277.824002 288.436,277.408 C288.436,277.143999 288.456,276.904001 288.496,276.688 C288.536,276.471999 288.594,276.266001 288.67,276.07 C288.746,275.873999 288.835999,275.682001 288.94,275.494 C289.044001,275.305999 289.159999,275.108001 289.288,274.9 L291.436,271.504 L292.792,271.504 L290.656,274.792 Z M289.588,277.372 C289.588,277.628001 289.63,277.863999 289.714,278.08 C289.798,278.296001 289.917999,278.481999 290.074,278.638 C290.230001,278.794001 290.415999,278.916 290.632,279.004 C290.848001,279.092 291.087999,279.136 291.352,279.136 C291.616001,279.136 291.855999,279.092 292.072,279.004 C292.288001,278.916 292.473999,278.794001 292.63,278.638 C292.786001,278.481999 292.906,278.296001 292.99,278.08 C293.074,277.863999 293.116,277.628001 293.116,277.372 C293.116,277.115999 293.074,276.880001 292.99,276.664 C292.906,276.447999 292.786001,276.262001 292.63,276.106 C292.473999,275.949999 292.288001,275.828 292.072,275.74 C291.855999,275.652 291.616001,275.608 291.352,275.608 C291.087999,275.608 290.848001,275.652 290.632,275.74 C290.415999,275.828 290.230001,275.949999 290.074,276.106 C289.917999,276.262001 289.798,276.447999 289.714,276.664 C289.63,276.880001 289.588,277.115999 289.588,277.372 Z" id="2016" fill="#767D97" opacity="0.455165578"></path>
                <path d="M191.552,278.776 L194.96,275.392 C195.080001,275.279999 195.195999,275.158001 195.308,275.026 C195.420001,274.893999 195.52,274.756001 195.608,274.612 C195.696,274.467999 195.766,274.316001 195.818,274.156 C195.87,273.995999 195.896,273.828001 195.896,273.652 C195.896,273.443999 195.858,273.256001 195.782,273.088 C195.706,272.919999 195.602001,272.778001 195.47,272.662 C195.337999,272.545999 195.182001,272.456 195.002,272.392 C194.821999,272.328 194.632001,272.296 194.432,272.296 C194.015998,272.296 193.672001,272.411999 193.4,272.644 C193.127999,272.876001 192.956,273.195998 192.884,273.604 L191.636,273.496 C191.692,273.119998 191.801999,272.794001 191.966,272.518 C192.130001,272.241999 192.333999,272.012001 192.578,271.828 C192.822001,271.643999 193.101998,271.508 193.418,271.42 C193.734002,271.332 194.075998,271.288 194.444,271.288 C194.812002,271.288 195.157998,271.338 195.482,271.438 C195.806002,271.538001 196.089999,271.685999 196.334,271.882 C196.578001,272.078001 196.769999,272.321999 196.91,272.614 C197.050001,272.906001 197.12,273.247998 197.12,273.64 C197.12,273.920001 197.078,274.181999 196.994,274.426 C196.91,274.670001 196.800001,274.899999 196.664,275.116 C196.527999,275.332001 196.372001,275.535999 196.196,275.728 C196.019999,275.920001 195.836001,276.107999 195.644,276.292 L192.848,278.992 L197.12,278.992 L197.12,280 L191.552,280 L191.552,278.776 Z M198.08,275.752 C198.08,275.439998 198.096,275.116002 198.128,274.78 C198.16,274.443998 198.218,274.114002 198.302,273.79 C198.386,273.465998 198.497999,273.156001 198.638,272.86 C198.778001,272.563999 198.957999,272.306001 199.178,272.086 C199.398001,271.865999 199.657998,271.690001 199.958,271.558 C200.258002,271.425999 200.607998,271.36 201.008,271.36 C201.408002,271.36 201.757998,271.425999 202.058,271.558 C202.358002,271.690001 202.617999,271.865999 202.838,272.086 C203.058001,272.306001 203.237999,272.563999 203.378,272.86 C203.518001,273.156001 203.63,273.465998 203.714,273.79 C203.798,274.114002 203.856,274.443998 203.888,274.78 C203.92,275.116002 203.936,275.439998 203.936,275.752 C203.936,276.200002 203.896,276.679997 203.816,277.192 C203.736,277.704003 203.588001,278.179998 203.372,278.62 C203.155999,279.060002 202.858002,279.423999 202.478,279.712 C202.097998,280.000001 201.608003,280.144 201.008,280.144 C200.407997,280.144 199.918002,280.000001 199.538,279.712 C199.157998,279.423999 198.860001,279.060002 198.644,278.62 C198.427999,278.179998 198.28,277.704003 198.2,277.192 C198.12,276.679997 198.08,276.200002 198.08,275.752 Z M199.232,275.752 C199.232,276.032001 199.25,276.363998 199.286,276.748 C199.322,277.132002 199.399999,277.501998 199.52,277.858 C199.640001,278.214002 199.817999,278.515999 200.054,278.764 C200.290001,279.012001 200.607998,279.136 201.008,279.136 C201.408002,279.136 201.725999,279.012001 201.962,278.764 C202.198001,278.515999 202.375999,278.214002 202.496,277.858 C202.616001,277.501998 202.694,277.132002 202.73,276.748 C202.766,276.363998 202.784,276.032001 202.784,275.752 C202.784,275.559999 202.778,275.342001 202.766,275.098 C202.754,274.853999 202.726,274.606001 202.682,274.354 C202.638,274.101999 202.576,273.858001 202.496,273.622 C202.416,273.385999 202.310001,273.174001 202.178,272.986 C202.045999,272.797999 201.884001,272.648001 201.692,272.536 C201.499999,272.423999 201.272001,272.368 201.008,272.368 C200.743999,272.368 200.516001,272.423999 200.324,272.536 C200.131999,272.648001 199.970001,272.797999 199.838,272.986 C199.705999,273.174001 199.6,273.385999 199.52,273.622 C199.44,273.858001 199.378,274.101999 199.334,274.354 C199.29,274.606001 199.262,274.853999 199.25,275.098 C199.238,275.342001 199.232,275.559999 199.232,275.752 Z M207.584,272.824 L206.024,274.264 L205.352,273.46 L207.716,271.504 L208.736,271.504 L208.736,280 L207.584,280 L207.584,272.824 Z M216.668,272.584 L213.224,272.584 L213.188,274.708 C213.244,274.684 213.323999,274.66 213.428,274.636 C213.532001,274.612 213.637999,274.592 213.746,274.576 C213.854001,274.56 213.959999,274.548 214.064,274.54 C214.168001,274.532 214.256,274.528 214.328,274.528 C214.728002,274.528 215.089998,274.595999 215.414,274.732 C215.738002,274.868001 216.015999,275.059999 216.248,275.308 C216.480001,275.556001 216.657999,275.851998 216.782,276.196 C216.906001,276.540002 216.968,276.919998 216.968,277.336 C216.968,277.760002 216.890001,278.143998 216.734,278.488 C216.577999,278.832002 216.364001,279.127999 216.092,279.376 C215.819999,279.624001 215.504002,279.813999 215.144,279.946 C214.783998,280.078001 214.396002,280.144 213.98,280.144 C213.403997,280.144 212.884002,279.996001 212.42,279.7 C211.955998,279.403999 211.624001,278.980003 211.424,278.428 L212.588,278.032 C212.740001,278.424002 212.943999,278.705999 213.2,278.878 C213.456001,279.050001 213.775998,279.136 214.16,279.136 C214.384001,279.136 214.597999,279.096 214.802,279.016 C215.006001,278.936 215.181999,278.822001 215.33,278.674 C215.478001,278.525999 215.596,278.344001 215.684,278.128 C215.772,277.911999 215.816,277.668001 215.816,277.396 C215.816,276.771997 215.626002,276.306002 215.246,275.998 C214.865998,275.689998 214.372003,275.536 213.764,275.536 C213.547999,275.536 213.274002,275.574 212.942,275.65 C212.609998,275.726 212.300001,275.835999 212.012,275.98 L212.108,271.504 L216.668,271.504 L216.668,272.584 Z" id="2015" fill="#767D97" opacity="0.455165578"></path>
                <path d="M67.4582945,152.792 L67.5062945,152.792 C67.7702958,152.663999 68.0822927,152.6 68.4422945,152.6 C68.746296,152.6 69.0542929,152.651999 69.3662945,152.756 C69.6782961,152.860001 69.9602932,153.021999 70.2122945,153.242 C70.4642958,153.462001 70.6702937,153.741998 70.8302945,154.082 C70.9902953,154.422002 71.0702945,154.823998 71.0702945,155.288 C71.0702945,155.760002 70.9922953,156.173998 70.8362945,156.53 C70.6802937,156.886002 70.4702958,157.183999 70.2062945,157.424 C69.9422932,157.664001 69.6342963,157.843999 69.2822945,157.964 C68.9302927,158.084001 68.5542965,158.144 68.1542945,158.144 C67.7542925,158.144 67.3782963,158.080001 67.0262945,157.952 C66.6742927,157.823999 66.3662958,157.640001 66.1022945,157.4 C65.8382932,157.159999 65.6282953,156.872002 65.4722945,156.536 C65.3162937,156.199998 65.2382945,155.824002 65.2382945,155.408 C65.2382945,155.143999 65.2582943,154.904001 65.2982945,154.688 C65.3382947,154.471999 65.3962941,154.266001 65.4722945,154.07 C65.5482949,153.873999 65.638294,153.682001 65.7422945,153.494 C65.846295,153.305999 65.9622939,153.108001 66.0902945,152.9 L68.2382945,149.504 L69.5942945,149.504 L67.4582945,152.792 Z M66.3902945,155.372 C66.3902945,155.628001 66.4322941,155.863999 66.5162945,156.08 C66.6002949,156.296001 66.7202937,156.481999 66.8762945,156.638 C67.0322953,156.794001 67.2182934,156.916 67.4342945,157.004 C67.6502956,157.092 67.8902932,157.136 68.1542945,157.136 C68.4182958,157.136 68.6582934,157.092 68.8742945,157.004 C69.0902956,156.916 69.2762937,156.794001 69.4322945,156.638 C69.5882953,156.481999 69.7082941,156.296001 69.7922945,156.08 C69.8762949,155.863999 69.9182945,155.628001 69.9182945,155.372 C69.9182945,155.115999 69.8762949,154.880001 69.7922945,154.664 C69.7082941,154.447999 69.5882953,154.262001 69.4322945,154.106 C69.2762937,153.949999 69.0902956,153.828 68.8742945,153.74 C68.6582934,153.652 68.4182958,153.608 68.1542945,153.608 C67.8902932,153.608 67.6502956,153.652 67.4342945,153.74 C67.2182934,153.828 67.0322953,153.949999 66.8762945,154.106 C66.7202937,154.262001 66.6002949,154.447999 66.5162945,154.664 C66.4322941,154.880001 66.3902945,155.115999 66.3902945,155.372 Z" id="6" fill="#767D97" opacity="0.455165578"></path>
                <path d="M68.8502945,196.128 L65.2262945,196.128 L65.2262945,194.952 L68.6102945,189.504 L70.0022945,189.504 L70.0022945,195.12 L71.2022945,195.12 L71.2022945,196.128 L70.0022945,196.128 L70.0022945,198 L68.8502945,198 L68.8502945,196.128 Z M68.8502945,190.872 L68.8262945,190.872 L66.2342945,195.12 L68.8502945,195.12 L68.8502945,190.872 Z" id="4" fill="#767D97" opacity="0.455165578"></path>
                <path d="M65.3702945,236.776 L68.7782945,233.392 C68.8982951,233.279999 69.0142939,233.158001 69.1262945,233.026 C69.2382951,232.893999 69.3382941,232.756001 69.4262945,232.612 C69.5142949,232.467999 69.5842942,232.316001 69.6362945,232.156 C69.6882948,231.995999 69.7142945,231.828001 69.7142945,231.652 C69.7142945,231.443999 69.6762949,231.256001 69.6002945,231.088 C69.5242941,230.919999 69.4202952,230.778001 69.2882945,230.662 C69.1562938,230.545999 69.0002954,230.456 68.8202945,230.392 C68.6402936,230.328 68.4502955,230.296 68.2502945,230.296 C67.8342924,230.296 67.4902959,230.411999 67.2182945,230.644 C66.9462931,230.876001 66.7742949,231.195998 66.7022945,231.604 L65.4542945,231.496 C65.5102948,231.119998 65.6202937,230.794001 65.7842945,230.518 C65.9482953,230.241999 66.1522933,230.012001 66.3962945,229.828 C66.6402957,229.643999 66.9202929,229.508 67.2362945,229.42 C67.5522961,229.332 67.8942927,229.288 68.2622945,229.288 C68.6302963,229.288 68.9762929,229.337999 69.3002945,229.438 C69.6242961,229.538001 69.9082933,229.685999 70.1522945,229.882 C70.3962957,230.078001 70.5882938,230.321999 70.7282945,230.614 C70.8682952,230.906001 70.9382945,231.247998 70.9382945,231.64 C70.9382945,231.920001 70.8962949,232.181999 70.8122945,232.426 C70.7282941,232.670001 70.6182952,232.899999 70.4822945,233.116 C70.3462938,233.332001 70.1902954,233.535999 70.0142945,233.728 C69.8382936,233.920001 69.6542955,234.107999 69.4622945,234.292 L66.6662945,236.992 L70.9382945,236.992 L70.9382945,238 L65.3702945,238 L65.3702945,236.776 Z" id="2" fill="#767D97" opacity="0.455165578"></path>
                <path d="M83.5,147.5 L83.5,261.657786" id="Line" stroke="#E5E5E5" stroke-linecap="square"></path>
                <path d="M396.50004,261.657786 L83.5,261.657786" id="Line" stroke="#E5E5E5" stroke-linecap="square"></path>
            </g>
            <rect id="Rectangle-16" fill="#7ADDA1" x="98" y="235" width="56.9377446" height="27"></rect>
            <rect id="Rectangle-16-Copy" fill="#7ADDA1" x="176" y="217" width="56.9377446" height="45"></rect>
            <rect id="Rectangle-16-Copy-2" fill="#7ADDA1" x="255" y="148" width="56.9377446" height="114"></rect>
            <rect id="Rectangle-16-Copy-3" fill="#7ADDA1" x="330" y="171" width="56.9377446" height="91"></rect>
        </g>
    </g>
</svg>