<?xml version="1.0" encoding="UTF-8"?>
<svg width="126px" height="75px" viewBox="0 0 126 75" version="1.1" xmlns="http://www.w3.org/2000/svg" xmlns:xlink="http://www.w3.org/1999/xlink">
    <!-- Generator: Sketch 42 (36781) - http://www.bohemiancoding.com/sketch -->
    <title>Group 6</title>
    <desc>Created with Sketch.</desc>
    <defs></defs>
    <g id="Marketing-Site" stroke="none" stroke-width="1" fill="none" fill-rule="evenodd">
        <g id="Desktop-HD-Copy-7" transform="translate(-232.000000, -1022.000000)">
            <g id="Group-6" transform="translate(232.000000, 1022.000000)">
                <circle id="Oval-11" fill="#F9D7B9" cx="1" cy="63" r="1"></circle>
                <circle id="Oval-11-Copy" fill="#F9D7B9" cx="11.3499939" cy="55.95" r="0.949999988"></circle>
                <g id="Page-1" transform="translate(3.000000, 0.000000)" fill="#C2B49A">
                    <path d="M69.5576714,27.0778182 C69.8271,26.0227879 70.1531476,25.3595152 70.1101952,24.7233939 C70.0731,24.1803636 69.6299095,23.6547879 69.3175286,23.1505455 C69.2765286,23.0846061 68.9016714,23.1292121 68.7669571,23.2339394 C68.1363381,23.7129697 68.3842905,24.2831515 68.6400524,24.8552727 C68.9133857,25.4661818 69.1515762,26.0926061 69.5576714,27.0778182 M5.8573381,9.088 C4.43990952,9.6 3.26652857,10.3233939 3.17867143,12.0436364 C3.1611,12.3946667 3.50276667,12.7069091 3.76829048,12.5595152 C5.01390952,11.8593939 5.9803381,10.9149091 6.04281429,9.36533333 C6.04476667,9.30327273 5.96081429,9.23927273 5.8573381,9.088 M18.5868619,6.30109091 C18.5243857,6.08581818 18.9226714,4.28412121 17.6536238,4.73987879 C15.2990524,5.58545455 12.7726714,6.35733333 10.8788619,8.17842424 C10.4415286,8.59927273 10.0861952,9.21987879 10.3790524,9.86763636 C10.6875286,10.5464242 11.4352905,10.5115152 12.0151476,10.505697 C13.3388619,10.4940606 14.6742905,10.4378182 15.9804333,10.24 C17.8195762,9.96072727 19.0281,9.04339394 18.5868619,6.30109091 M32.3472429,35.5374545 C32.2222905,34.9265455 31.3691,34.2050909 32.2789095,33.718303 C34.1492905,32.7175758 34.1805286,30.6346667 35.248481,29.1878788 C35.7931952,28.4509091 35.4554333,28.1115152 35.0259095,27.6402424 C34.5280524,27.0913939 34.1278143,26.9730909 33.4932905,27.5781818 C32.7181952,28.3190303 31.5233381,28.7185455 30.9591,29.5621818 C30.000481,30.9973333 29.1219095,30.4698182 28.0988619,29.8627879 L27.3218143,29.2693333 C27.0133381,27.9699394 27.3979571,27.1553939 28.8563857,27.0739394 C30.3011476,26.9924848 31.2090048,25.9704242 31.6639095,24.8824242 C32.6479095,22.5202424 33.6729095,20.278303 35.9611,18.8664242 C36.3828143,18.6065455 36.6678619,18.121697 36.4628619,17.6678788 C36.1602429,16.9968485 35.5530524,17.2838788 35.0669095,17.4758788 C34.3347667,17.7648485 33.4073857,18.2109091 32.9505286,17.4584242 C32.4565762,16.64 33.3722429,16.1299394 33.9970048,15.6606061 C34.5261,15.2610909 35.402719,14.8829091 34.8423857,14.0664242 C34.4148143,13.4419394 33.7002429,13.8666667 33.1516238,14.1556364 C32.5131952,14.4930909 31.7517667,14.9139394 31.2109571,14.3379394 C30.4963857,13.577697 31.6443857,13.0540606 31.7810524,12.1910303 C30.7423857,12.2860606 30.1312905,12.9629091 30.1039571,13.750303 C30.0551476,15.3270303 29.1238619,16.0969697 27.9172905,16.7563636 C27.0055286,17.2567273 26.2089571,17.718303 26.556481,19.0758788 C26.7888143,19.9893333 25.900481,20.4353939 25.1097667,20.5595152 C21.6403857,21.1025455 19.0671476,23.1350303 16.5271,25.3517576 C14.4380524,27.1747879 12.0366238,27.1767273 9.57076667,25.9141818 C7.85852857,25.0395152 7.70819524,23.0264242 6.39424286,21.8259394 C5.89443333,21.3682424 6.81595714,21.0210909 7.33919524,21.1490909 C8.31538571,21.3876364 9.27205238,21.7212121 10.2248143,22.0470303 C10.597719,22.1750303 10.935481,22.3728485 11.2966714,22.0412121 C11.7535286,21.622303 11.3201,21.3682424 11.1053381,21.0986667 C10.2404333,20.0242424 10.7656238,19.3532121 11.8667667,19.5413333 C15.7930048,20.2181818 16.2264333,16.6167273 18.1475762,14.8344242 C15.0218143,14.8809697 11.7125286,14.5299394 11.1541476,18.6569697 C9.5981,18.5541818 10.6231,15.3464242 8.39348095,16.8436364 C7.3938619,17.5127273 7.8761,19.2174545 6.77495714,19.9835152 C5.8358619,19.4288485 6.20290952,18.3932121 5.79876667,17.6601212 C5.57814762,17.2586667 5.51957619,16.713697 4.91043333,16.7447273 C4.29543333,16.777697 4.23881429,17.270303 4.19390952,17.7493333 C4.11581429,18.5832727 3.9088619,19.3726061 3.32119524,20.1658182 C2.61052857,19.6072727 2.50314762,18.8528485 2.30205238,18.1430303 C2.11267143,17.4758788 1.93500476,16.8029091 1.69290952,16.1551515 C1.36100476,15.2630303 -0.419566667,15.2824242 0.0919571429,13.9093333 C0.822147619,11.9408485 1.6851,9.86957576 3.54767143,8.79127273 C7.63205238,6.42521212 11.7613381,4.07466667 16.0858619,2.2070303 C18.1182905,1.33042424 20.6661476,1.77066667 22.6282905,0.190060606 C23.2589095,-0.316121212 24.209719,0.296727273 24.752481,0.785454545 C26.1855286,2.08290909 28.1496238,2.27490909 29.6881,3.31054545 C29.7525286,3.35515152 29.8091476,3.42109091 29.8794333,3.44242424 C32.0465762,4.08630303 32.0465762,4.08436364 31.3651952,6.27006061 C32.624481,6.42327273 33.5870048,6.02957576 34.3972429,5.07345455 C34.7076714,4.7049697 35.1625762,4.15612121 35.7600048,4.68363636 C36.2441952,5.11224242 36.0782429,5.65139394 35.8517667,6.17309091 C35.5608619,6.84412121 34.5866238,7.57721212 35.2816714,8.20557576 C35.9376714,8.79709091 37.0759095,8.53333333 37.9935286,8.38206061 C38.4308619,8.31030303 38.846719,8.02521212 39.2391476,7.78084848 C39.707719,7.49187879 40.1255286,7.49575758 40.4847667,7.9049697 C40.8811,8.35684848 40.6546238,8.768 40.3090524,9.12678788 C39.9869095,9.46230303 39.635481,9.77066667 39.3035762,10.0984242 C38.8506238,10.5406061 38.3449571,11.0506667 38.6885762,11.6984242 C39.102481,12.48 39.9166238,12.1968485 40.5823857,12.0882424 C41.0333857,12.0145455 41.4551,11.7740606 41.8943857,11.6208485 C42.2946238,11.4812121 42.7163381,11.5180606 42.9369571,11.8729697 C43.2044333,12.3054545 43.1068143,12.7864242 42.7085286,13.129697 C42.3571,13.430303 41.9744333,13.6998788 41.5820048,13.9500606 C40.8322905,14.4329697 40.4789095,15.1738182 40.7991,15.9398788 C41.1271,16.7311515 42.1989571,16.6535758 42.6050524,16.3161212 C43.7628143,15.3561212 45.2739571,17.0123636 46.4590524,15.5306667 C46.9295762,14.9430303 47.6656238,16.0349091 47.784719,16.8746667 C47.8921,17.6310303 47.9467667,18.7558788 48.8214333,18.7015758 C49.7683381,18.6433939 50.1041476,17.5107879 50.4341,16.6419394 C50.7542905,15.8002424 49.8483857,14.2681212 51.2911952,14.1653333 C52.6481,14.0683636 52.2849571,15.625697 52.6051476,16.5042424 C52.8179571,17.088 53.1576714,17.8482424 53.8351476,17.7066667 C54.7625286,17.5146667 55.3990048,16.7272727 55.6918619,15.8273939 C56.0042429,14.8751515 55.5688619,13.2014545 56.9960524,13.3042424 C58.2475286,13.3934545 57.9253857,14.985697 58.1128143,16.0271515 C58.331481,17.2315152 58.8098143,18.0615758 60.2604333,16.9270303 C61.1487667,16.2307879 61.4767667,15.3561212 61.7696238,14.4058182 C61.9629095,13.7813333 62.144481,13.0967273 62.9293381,13.248 C63.6497667,13.3876364 63.7395762,14.0877576 63.7122429,14.7393939 C63.7083381,14.8169697 63.7141952,14.8945455 63.7122429,14.9721212 C63.6692905,16.1318788 63.446719,17.7803636 64.7782429,17.9238788 C65.9809095,18.0538182 67.0859571,16.8766061 67.4979095,15.4511515 C67.6833857,14.8169697 67.9781952,13.9209697 68.8450524,14.1575758 C69.7255762,14.3961212 69.801719,15.2591515 69.5869571,16.0814545 C69.5479095,16.2307879 69.4717667,16.3704242 69.4366238,16.521697 C69.1515762,17.6678788 69.2921476,18.9866667 70.3835286,19.3105455 C71.2171952,19.5587879 72.1621476,18.6492121 72.6053381,17.6271515 C72.9196714,16.8998788 73.0621952,15.6392727 74.1770048,16.0116364 C75.3386714,16.4014545 74.936481,17.5030303 74.6006714,18.4067879 C74.2609571,19.3241212 74.5401476,20.3597576 75.2605762,20.6758788 C76.1742905,21.0773333 76.9552429,20.278303 77.4491952,19.4501818 C77.6854333,19.0545455 77.8142905,18.5949091 78.0602905,18.2109091 C78.3160524,17.8133333 78.6713857,17.4855758 79.2219571,17.7047273 C79.6729571,17.8831515 79.6690524,18.294303 79.6749095,18.6802424 C79.6807667,18.9886061 79.6768619,19.3027879 79.6280524,19.6072727 C79.4816238,20.5304242 79.1575286,21.7852121 80.184481,22.0722424 C81.2895286,22.3825455 82.0568143,21.3779394 82.5039095,20.3035152 C82.726481,19.7701818 82.9549095,18.9827879 83.7729571,19.2290909 C84.7198619,19.5141818 84.325481,20.3869091 84.2864333,21.0094545 C84.2317667,21.8860606 83.5894333,23.0186667 84.8409095,23.3658182 C85.832719,23.6412121 86.4789571,22.7452121 86.9572905,21.888 C87.2618619,21.3430303 87.3868143,20.3209697 88.3454333,20.7747879 C89.1029571,21.1355152 88.8881952,21.897697 88.6695286,22.6230303 C88.4547667,23.3289697 88.1443381,24.3393939 89.1146714,24.6361212 C89.9932429,24.9018182 90.6472905,24.1784242 91.1373381,23.4181818 C91.4770524,22.8945455 91.5941952,21.8589091 92.5450048,22.2758788 C93.3942905,22.6501818 92.9432905,23.4492121 92.8144333,24.128 C92.6914333,24.7738182 92.3829571,25.7144242 93.2146714,25.929697 C93.9155762,26.1100606 94.6457667,25.5515152 95.1377667,24.8804848 C95.508719,24.3762424 95.6492905,23.3115152 96.5669095,23.753697 C97.3361476,24.1241212 97.0140048,24.9890909 96.7582429,25.6213333 C96.5220048,26.2012121 96.4243857,26.7306667 97.0940524,26.9672727 C97.773481,27.2077576 98.2498619,26.6569697 98.7086714,26.2613333 C99.2241,25.8191515 99.2924333,24.5527273 100.329148,25.1209697 C101.133529,25.5631515 100.514624,26.3466667 100.317433,26.9866667 C100.206148,27.3493333 100.151481,27.8555152 100.555624,28.0048485 C100.873862,28.1212121 101.324862,27.9796364 101.6841,27.8535758 C102.51191,27.5626667 102.574386,26.3815758 103.64429,26.1895758 C104.202671,26.6317576 104.052338,27.2426667 103.900052,27.8089697 C103.784862,28.2395152 103.359243,28.6875152 103.818052,29.0715152 C104.347148,29.513697 104.817671,28.9493333 105.2921,28.7922424 C105.977386,28.5653333 106.184338,27.1515152 107.072671,27.7197576 C107.914148,28.2569697 106.754433,29.248 107.08829,30.1808485 C107.5471,30.0567273 107.974671,29.9364848 108.402243,29.8259394 C109.085576,29.6494545 109.17929,28.2026667 110.16329,28.8601212 C111.012576,29.4283636 109.585386,30.2409697 110.196481,31.0031515 C110.649433,31.2048485 111.0321,30.848 111.426481,30.6831515 C111.959481,30.4620606 112.250386,29.5408485 112.980576,29.9481212 C113.923576,30.4756364 112.496386,31.1369697 113.025481,31.817697 C114.71429,30.3437576 115.2961,31.2688485 115.358576,32.9561212 C116.252767,33.2431515 118.134862,30.4349091 117.816624,33.8385455 C117.791243,34.1042424 118.458957,33.9820606 118.82991,33.8443636 C120.526529,33.2179394 121.215719,34.5949091 121.98691,35.5684848 C122.551148,36.2841212 121.899052,36.7650909 121.215719,36.7825455 C120.067719,36.8155152 118.81429,37.1878788 117.791243,36.5226667 C117.160624,36.1134545 116.879481,36.0804848 116.219576,36.4858182 C114.665481,37.4438788 115.093052,35.3706667 114.538576,35.254303 C113.831814,35.1049697 112.592052,36.7515152 112.266005,35.6344242 C111.576814,33.2761212 110.846624,34.614303 109.971957,35.2698182 C109.628338,35.5258182 109.239814,35.6053333 108.921576,35.273697 C108.443243,34.7733333 109.390148,34.3253333 108.923529,33.6659394 C108.499862,32.1939394 105.555671,37.9481212 106.164814,32.8785455 C104.823529,32.6787879 104.499433,34.3427879 103.369005,34.486303 C102.531433,33.6756364 103.45491,32.8300606 103.210862,32.0387879 C102.595862,31.7847273 102.170243,32.1939394 101.721195,32.4111515 C101.041767,32.7389091 100.901195,34.1313939 100.071433,33.7842424 C98.8941476,33.289697 100.2081,32.0892121 99.6301952,31.1175758 C98.7399095,31.0671515 98.1112429,31.6218182 97.6290048,32.4169697 C97.3751952,32.8339394 97.0999095,33.2373333 96.543481,33.0763636 C95.7703381,32.8533333 96.0866238,32.2152727 96.1100524,31.7187879 C96.133481,31.2455758 96.8773381,30.6637576 96.0866238,30.3379394 C95.344719,30.0295758 94.7629095,30.6113939 94.3060524,31.1505455 C93.8804333,31.6509091 93.673481,32.6768485 92.8827667,32.384 C91.8987667,32.0213333 92.3341476,31.1311515 92.6309095,30.3941818 C92.812481,29.9403636 92.8085762,29.4361212 92.3165762,29.1665455 C91.8245762,28.8950303 91.4204333,29.3410909 91.0826714,29.5602424 C90.6531476,29.8433939 90.3310048,30.3224242 90.0303381,30.7607273 C89.7218619,31.2126061 89.4661,31.8409697 88.8296238,31.6082424 C88.2575762,31.3987879 88.2341476,30.8072727 88.3688619,30.2138182 C88.5328619,29.4962424 88.9662905,28.4567273 88.1052905,28.169697 C87.359481,27.9214545 86.5648619,28.6002424 86.078719,29.3992727 C85.719481,29.9907879 85.545719,31.1117576 84.4758143,30.6152727 C83.6558143,30.2332121 84.0404333,29.4438788 84.2298143,28.7631515 C84.397719,28.1619394 84.5070524,27.4288485 83.8881476,27.0603636 C83.1403857,26.614303 82.644481,27.4210909 82.1407667,27.7566061 C81.7444333,28.0203636 81.6272905,28.6797576 81.3481,29.1413333 C81.1060048,29.5466667 80.8014333,29.9287273 80.2430524,29.8356364 C79.4425762,29.7018182 79.6768619,29.0501818 79.6202429,28.5478788 C79.518719,27.6130909 80.3562905,26.1643636 79.1536238,25.8715152 C78.0173381,25.5941818 77.1563381,26.7597576 76.7561,27.9563636 C76.5803857,28.4838788 76.2543381,28.9745455 75.5846714,28.8717576 C74.6377667,28.7301818 74.9911476,27.9447273 74.9306238,27.3900606 C74.8193381,26.3873939 75.5690524,24.8436364 74.2316714,24.5798788 C73.1285762,24.3646061 72.4179095,25.6659394 71.8380524,26.7597576 C70.3952429,29.4826667 70.6529571,29.9946667 73.8861,30.3747879 C75.0048143,30.5066667 76.8615286,30.2739394 77.0352905,31.1621818 C77.2949571,32.4945455 75.4441,32.7447273 74.4327667,33.3381818 C73.0973381,34.1178182 71.6760048,34.7558788 70.2781,35.4230303 C68.212481,36.4082424 67.7419571,36.0940606 67.4276238,33.8909091 C67.1562429,31.9844848 66.7345286,30.0993939 66.3050048,28.2201212 C66.2191,27.84 66.1781,27.1650909 65.5845762,27.1825455 C64.9129571,27.2038788 64.809481,27.8632727 64.7040524,28.3733333 C64.4736714,29.4729697 65.0164333,30.5163636 65.0437667,31.5791515 C65.1042905,33.9878788 66.7696714,35.8593939 67.0000524,38.2991515 C67.1816238,40.2191515 69.9071476,40.8766061 72.2578143,40.0989091 C74.7451476,39.2785455 75.2996238,39.5442424 75.8501952,41.9568485 C75.9575762,42.4300606 75.9380524,42.7907879 76.535481,42.9692121 C76.935719,43.0913939 77.5116714,43.510303 77.5390048,43.8380606 C77.7674333,46.4058182 78.2028143,48.8436364 80.1708143,50.7791515 C80.5515286,51.1553939 80.2079095,51.84 79.7725286,52.2084848 C79.3625286,52.5556364 78.9095762,52.8989091 78.4156238,53.0850909 C77.1465762,53.558303 75.7935762,54.710303 74.5011,53.7231515 C73.3081952,52.8116364 73.9231952,51.2193939 74.1418619,49.9956364 C74.3859095,48.6341818 74.6846238,46.9391515 73.6030048,46.3495758 C71.4475762,45.1704242 70.0047667,42.4029091 66.9844333,43.0293333 C65.6900048,43.2989091 64.2999095,43.9854545 63.3842429,42.5755152 C62.5330048,41.2625455 63.8742905,40.3626667 64.5244333,39.2669091 C63.4779571,39.3018182 62.4471,40.2094545 61.6173381,39.2882424 C60.7680524,38.345697 61.5782905,37.3721212 61.9004333,36.4722424 C62.3748619,35.1437576 62.421719,33.8288485 62.2616238,32.4130909 C61.406481,32.5934545 61.1858619,33.2218182 60.7836714,33.6601212 C59.5478143,34.998303 59.182719,36.8387879 57.6461952,38.1284848 C56.1877667,39.3522424 57.2225286,42.0770909 59.2061476,43.3997576 C61.6134333,45.0036364 61.6817667,45.3178182 59.9265762,47.6082424 C59.6630048,47.9534545 59.5400048,48.137697 59.7411,48.5798788 C60.371719,49.9704242 59.3916238,50.8004848 58.4661952,51.4889697 C57.1366238,52.4780606 56.2346238,53.6455758 56.2151,55.3386667 C56.1975286,56.7699394 55.2955286,57.0841212 54.1748619,56.8106667 C53.2923857,56.5973333 52.4196714,56.1803636 51.6543381,55.6838788 C49.3954333,54.2215758 49.4774333,53.0133333 51.8515286,51.6324848 C56.3049095,49.0414545 56.7930048,43.913697 52.8491952,40.5624242 C52.007719,39.8448485 51.7871,39.049697 52.0135762,38.0974545 C52.2673857,37.0327273 53.196719,37.0055758 54.0655286,37.0075152 C54.518481,37.0075152 54.9714333,37.1025455 55.4497667,37.1587879 C55.3619095,36.3151515 54.6239095,36.4916364 54.2471,36.1755152 C53.7531476,35.766303 53.319719,35.328 53.4251476,34.614303 C53.5383857,33.8618182 54.1065286,33.7027879 54.7488619,33.5321212 C56.6582905,33.0259394 58.3802905,32.1415758 59.7860048,30.7413333 C61.2951952,29.2344242 61.3752429,27.1282424 60.0202905,25.5107879 C59.6239571,25.0375758 59.2373857,24.512 58.4798619,24.6962424 C57.7028143,24.886303 57.7321,25.5185455 57.5700524,26.1294545 C56.9921476,28.2918788 56.7402905,30.6269091 54.6863857,32.1997576 C54.8230524,28.9939394 55.1315286,25.8385455 54.6707667,22.5667879 C53.2982429,23.2766061 53.4075762,24.4615758 53.4212429,25.5922424 C53.4700524,29.4244848 52.9624333,33.142303 51.1311,36.5827879 C50.4165286,37.9229091 49.5945762,39.168 47.4469571,39.9631515 C49.9733381,34.56 50.377481,29.3895758 50.0377667,23.9146667 C48.2259571,25.0589091 48.5930048,26.9478788 48.2981952,28.4315152 C47.6968619,31.4666667 47.1580048,34.5095758 45.8147667,37.3139394 C44.8171,39.4026667 43.4758143,41.2489697 40.8108143,41.7357576 C42.5952905,39.0206061 44.135719,36.2395152 44.668719,33.0278788 C45.0494333,30.7355152 45.4965286,28.4431515 45.1041,26.1158788 C44.9947667,25.4661818 45.416481,24.2482424 44.1903857,24.3704242 C43.0677667,24.4809697 43.6007667,25.6038788 43.5285286,26.2884848 C43.110719,30.3961212 42.4273857,34.4126061 39.8033857,37.814303 C39.0400048,38.8014545 38.2024333,39.7187879 37.0954333,40.3413333 C36.6112429,40.6128485 36.0333381,40.896 35.5784333,40.4712727 C35.0512905,39.9786667 35.5628143,39.4550303 35.8381,39.0438788 C36.6151476,37.888 37.5093381,36.8058182 38.2668619,35.6344242 C39.6530524,33.4894545 39.9908143,31.0652121 40.0747667,28.3636364 C37.3668143,29.5912727 37.0466238,32.310303 36.0294333,34.3505455 C35.3031476,35.8089697 34.5436714,36.0067879 33.2863381,35.9796364 C32.9739571,35.8341818 32.6615762,35.6848485 32.3472429,35.5374545" id="Fill-1"></path>
                    <path d="M32.3480238,35.5382303 C32.6604048,35.6856242 32.9727857,35.8330182 33.2851667,35.9804121 C34.2652619,37.2041697 33.0840714,37.3787152 32.3890238,37.6638061 C31.0926429,38.1971394 29.5424524,38.2844121 30.1886905,40.5069576 C30.4327381,41.3486545 29.228119,42.1767758 28.4100714,42.7779879 C27.5510238,43.4121697 26.6587857,44.0017455 25.7821667,44.6107152 C25.1300714,43.3462303 25.1300714,43.3462303 28.1992143,38.1021091 C26.7329762,39.6555636 24.8157381,39.9154424 22.8653095,40.0453818 C22.4435952,40.0725333 21.8871667,40.3013818 21.6372619,39.7622303 C21.4205476,39.2948364 21.7114524,38.8739879 21.9965,38.4938667 C22.8106429,37.4019879 23.9059286,36.3159273 25.2023095,36.4536242 C27.7072143,36.7193212 29.9387857,35.5692606 32.3480238,35.5382303" id="Fill-3"></path>
                    <path d="M27.3212286,29.2691394 L28.0982762,29.8625939 C27.9323238,31.6119273 26.6359429,30.7644121 25.7749429,30.8245333 C24.6816095,30.9021091 23.4516095,30.3978667 23.2895619,32.3042909 C23.1997524,33.353503 18.3461333,34.9457455 17.5378476,34.3833212 C16.8076571,33.8771394 17.483181,31.8834424 18.7288,31.305503 C19.9178,30.7527758 21.214181,30.4269576 22.4480857,29.7229576 C19.9412286,30.5006545 17.7760381,29.5445333 15.474181,28.617503 C16.5889905,26.7479273 18.6507048,25.9644121 20.2028476,26.8119273 C22.4988476,28.0647758 25.1716571,27.8708364 27.3212286,29.2691394" id="Fill-5"></path>
                    <path d="M40.2662952,51.7540848 C43.4311048,49.839903 46.4651048,50.2762667 48.7532952,52.7509333 C49.1789143,53.2125091 49.2960571,53.7070545 49.0402952,54.2151758 C48.7240095,54.8396606 48.2163905,54.8493576 47.4940095,54.7407515 C44.9168667,54.3470545 42.8863905,52.7509333 40.2662952,51.7540848" id="Fill-7"></path>
                    <path d="M67.0084476,60.1906424 C67.0650667,57.7024 67.6624952,55.8871273 70.1283524,55.2296727 C70.5734952,55.1113697 71.0049714,54.9426424 71.4325429,54.7719758 C72.3774952,54.3899152 73.4259238,53.340703 74.2342095,54.7661576 C74.9839238,56.0888242 73.5001143,56.3564606 72.8460667,56.9848242 C71.2392571,58.5285818 68.9608286,58.8039758 67.0084476,60.1906424" id="Fill-9"></path>
                    <path d="M72.9753143,62.1158788 C71.7609333,60.1570909 72.0811238,58.8111515 73.685981,57.6300606 C74.4200762,57.0928485 74.9452667,56.278303 75.5856476,55.6072727 C75.9351238,55.2407273 76.1537905,54.5716364 76.8488381,54.8295758 C77.4970286,55.072 77.744981,55.6072727 77.7645048,56.3035152 C77.8016,57.5660606 77.4013619,58.5551515 76.2494571,59.2067879 C75.0331238,59.8952727 73.8968381,60.694303 72.9753143,62.1158788" id="Fill-11"></path>
                    <path d="M42.5322286,57.6546909 C43.2292286,55.6338424 44.4748476,55.2052364 46.1265619,55.459297 C47.1945143,55.6222061 48.2722286,55.7269333 49.3499429,55.8355394 C49.7950857,55.8782061 50.3319905,55.7211152 50.5369905,56.2816 C50.7400381,56.8304485 50.5877524,57.3463273 50.1484667,57.7536 C49.2328,58.6030545 48.1453238,59.0568727 46.9582762,58.531297 C45.5935619,57.9281455 44.1663714,57.743903 42.5322286,57.6546909" id="Fill-13"></path>
                    <path d="M48.6220952,63.3345939 C47.9817143,60.5127758 50.3304286,57.3806545 52.8978095,57.3341091 C53.3800476,57.3244121 53.8134762,57.3884121 54.1239048,57.8189576 C54.5495238,58.4104727 54.1160952,58.8410182 53.8427619,59.2676848 C52.6264286,61.1624727 50.5315238,61.9479273 48.6220952,63.3345939" id="Fill-15"></path>
                    <path d="M81.5341619,57.0759758 C81.5009714,57.5104 81.5985905,58.1853091 81.3682095,58.7186424 C81.1065905,59.3198545 81.6337333,60.3574303 80.761019,60.4912485 C79.8160667,60.6386424 79.1932571,59.7038545 78.9355429,58.9785212 C78.392781,57.436703 78.5606857,55.7824 78.8633048,54.1959758 C78.9687333,53.6413091 79.4138762,53.0982788 80.1889714,53.1079758 C80.9308762,53.1157333 80.9640667,53.6897939 81.1885905,54.1688242 C81.6005429,55.0531879 81.4755905,55.9802182 81.5341619,57.0759758" id="Fill-17"></path>
                </g>
                <circle id="Oval-10" fill="#F9D8BA" cx="4" cy="53" r="3"></circle>
                <circle id="Oval-10-Copy" fill="#8B572A" cx="4" cy="52" r="3"></circle>
                <rect id="Rectangle-10" fill="#B5CDFF" x="2" y="64" width="5" height="10"></rect>
                <rect id="Rectangle-11" fill="#7ADDA1" x="2" y="57" width="5" height="7"></rect>
                <polygon id="Rectangle-11-Copy" fill="#7ADDA1" transform="translate(8.384680, 57.432991) rotate(-28.000000) translate(-8.384680, -57.432991) " points="6.78360822 56.4329912 11.686357 56.5473636 11.686357 58.4233165 5.08300228 58.4329912"></polygon>
                <path d="M-2,59 L3.00922203,59 C3.55641359,59 4,59.4438648 4,60 L4,61 L-2,61 L-2,59 Z" id="Rectangle-11-Copy-2" fill="#7ADDA1" transform="translate(1.000000, 60.000000) rotate(-90.000000) translate(-1.000000, -60.000000) "></path>
                <path d="M4.5,74.5 L4.5,68.5" id="Line" stroke="#FFFFFF" stroke-width="0.5" stroke-linecap="square"></path>
                <rect id="Rectangle-12" fill="#F9D7B9" x="3" y="55" width="2" height="2"></rect>
            </g>
        </g>
    </g>
</svg>