<?xml version="1.0" encoding="UTF-8"?>
<svg width="86px" height="96px" viewBox="0 0 86 96" version="1.1" xmlns="http://www.w3.org/2000/svg" xmlns:xlink="http://www.w3.org/1999/xlink">
    <!-- Generator: Sketch 42 (36781) - http://www.bohemiancoding.com/sketch -->
    <title>Group 9</title>
    <desc>Created with Sketch.</desc>
    <defs>
        <circle id="path-1" cx="20" cy="20" r="20"></circle>
        <circle id="path-3" cx="20" cy="20" r="20"></circle>
        <mask id="mask-4" maskContentUnits="userSpaceOnUse" maskUnits="objectBoundingBox" x="-3" y="-3" width="46" height="46">
            <rect x="-3" y="-3" width="46" height="46" fill="white"></rect>
            <use xlink:href="#path-3" fill="black"></use>
        </mask>
    </defs>
    <g id="Marketing-Site" stroke="none" stroke-width="1" fill="none" fill-rule="evenodd">
        <g id="Desktop-HD-Copy-7" transform="translate(-576.000000, -994.000000)">
            <g id="Group-9" transform="translate(576.000000, 994.000000)">
                <path d="M13.5,15.5 L24.5,32.5" id="Line" stroke="#69BC89" stroke-width="5" stroke-linecap="square"></path>
                <circle id="Oval-9" fill="#7ADDA1" cx="12" cy="13" r="8"></circle>
                <rect id="Rectangle-9" fill="#D3B0DD" x="21" y="8" width="29.2819529" height="27"></rect>
                <rect id="Rectangle-9-Copy" fill="#C2A2CB" x="27.9718935" y="12.8214286" width="16.7325445" height="15.4285714"></rect>
                <g id="Oval-8-+-Oval-8-Copy-+-Oval-8-Copy-2-+-Oval-8-Copy-3-+-Oval-8-Copy-4-+-Oval-5-Mask" transform="translate(40.000000, 0.000000)">
                    <mask id="mask-2" fill="white">
                        <use xlink:href="#path-1"></use>
                    </mask>
                    <use id="Mask" fill="#FCCACA" xlink:href="#path-1"></use>
                    <circle id="Oval-8" fill="#FFE5E5" mask="url(#mask-2)" cx="30.5" cy="5.5" r="4.5"></circle>
                    <circle id="Oval-8-Copy" fill="#FFE5E5" mask="url(#mask-2)" cx="11.5" cy="5.5" r="4.5"></circle>
                    <circle id="Oval-8-Copy-2" fill="#FFE5E5" mask="url(#mask-2)" cx="35.5" cy="27.5" r="4.5"></circle>
                    <circle id="Oval-8-Copy-3" fill="#FFE5E5" mask="url(#mask-2)" cx="20.5" cy="19.5" r="4.5"></circle>
                    <circle id="Oval-8-Copy-4" fill="#FFE5E5" mask="url(#mask-2)" cx="4.5" cy="24.5" r="4.5"></circle>
                    <g id="Oval-5" mask="url(#mask-2)" stroke-width="6" stroke="#FFFFFF">
                        <use mask="url(#mask-4)" xlink:href="#path-3"></use>
                    </g>
                </g>
                <polygon id="Path-10-Copy" fill="#F5EAD5" points="0 24 63.3055898 24 59.5189661 81 0 74.3042965"></polygon>
                <polygon id="Path-11-Copy" fill="#E0D4C0" points="63.175321 24 85.2459638 32.6856685 80.0252247 77.2375722 59.5227136 80.8726687"></polygon>
                <g id="Group-5" transform="translate(10.000000, 35.000000)">
                    <ellipse id="Oval-6-Copy-2" fill="#DEA16B" cx="43.75" cy="7.13" rx="6.875" ry="7.13"></ellipse>
                    <ellipse id="Oval-6-Copy-9" fill="#C88F5D" cx="42.8125" cy="8.06" rx="4.6875" ry="4.96"></ellipse>
                    <ellipse id="Oval-6-Copy" fill="#DEA16B" cx="16.25" cy="7.13" rx="6.875" ry="7.13"></ellipse>
                    <ellipse id="Oval-6-Copy-8" fill="#C88F5D" cx="17.1875" cy="8.06" rx="4.6875" ry="4.96"></ellipse>
                    <path d="M49.3707063,46.1565588 C51.7402489,45.1508294 52.8033062,39.2642597 51.7451111,33.0085375 C50.6869161,26.7528153 51.3187046,22.114089 45.5386431,23.5025847 C39.7585816,24.8910804 42.1060432,30.3948837 43.1642383,36.650606 C44.2224333,42.9063282 47.0011637,47.1622882 49.3707063,46.1565588 Z" id="Oval-6-Copy-5" fill="#DEA16B" transform="translate(46.970880, 34.779598) scale(-1, 1) rotate(254.000000) translate(-46.970880, -34.779598) "></path>
                    <path d="M15.5160292,46.1565588 C17.8855718,45.1508294 18.9486291,39.2642597 17.890434,33.0085375 C16.832239,26.7528153 17.4640275,22.114089 11.683966,23.5025847 C5.9039045,24.8910804 8.25136614,30.3948837 9.30956118,36.650606 C10.3677562,42.9063282 13.1464866,47.1622882 15.5160292,46.1565588 Z" id="Oval-6-Copy-10" fill="#DEA16B" transform="translate(13.116203, 34.779598) rotate(254.000000) translate(-13.116203, -34.779598) "></path>
                    <ellipse id="Oval-6-Copy-3" fill="#DEA16B" cx="30.2708789" cy="40.61" rx="14.7291211" ry="16.43"></ellipse>
                    <ellipse id="Oval-6-Copy-7" fill="#C88F5D" cx="30.520525" cy="39.6589831" rx="9.9858448" ry="11.1389831"></ellipse>
                    <ellipse id="Oval-6" fill="#DEA16B" cx="30" cy="18.91" rx="16.25" ry="13.95"></ellipse>
                    <g id="Group-4" transform="translate(9.375000, 40.920000)">
                        <path d="M9.99095923,19.0967485 C13.1904235,18.2544149 14.6258117,13.3242066 13.1969886,8.08482004 C11.7681655,2.84543351 8.01619732,-0.719082145 4.81673308,0.123251489 C1.61726883,0.965585122 0.181880583,5.89579343 1.61070368,11.13518 C3.03952678,16.3745665 6.79149499,19.9390821 9.99095923,19.0967485 Z" id="Oval-6-Copy-4" fill="#C88F5D"></path>
                        <path d="M9.11959765,16.0063196 C11.0555933,15.5005831 12.0936323,13.1571525 11.4381226,10.7721209 C10.7826129,8.38708925 8.68178266,6.86361953 6.74578697,7.36935603 C4.80979128,7.87509253 3.7717523,10.2185231 4.42726202,12.6035548 C5.08277174,14.9885864 7.18360196,16.5120561 9.11959765,16.0063196 Z" id="Oval-6-Copy-6" fill="#DEA16B"></path>
                        <g id="Group-3" transform="translate(5.205373, 5.070934) rotate(-12.000000) translate(-5.205373, -5.070934) translate(0.445757, 2.473636)" fill="#DEA16B">
                            <ellipse id="Oval-7" transform="translate(2.258311, 3.820435) rotate(-12.000000) translate(-2.258311, -3.820435) " cx="2.25831137" cy="3.82043514" rx="1.01134994" ry="0.982495559"></ellipse>
                            <ellipse id="Oval-7-Copy" transform="translate(5.091020, 2.281144) rotate(-12.000000) translate(-5.091020, -2.281144) " cx="5.09102027" cy="2.28114421" rx="1.01134994" ry="0.982495559"></ellipse>
                            <ellipse id="Oval-7-Copy-2" transform="translate(8.222870, 3.291833) rotate(-12.000000) translate(-8.222870, -3.291833) " cx="8.22286999" cy="3.29183267" rx="1.01134994" ry="0.982495559"></ellipse>
                        </g>
                    </g>
                    <g id="Group-4-Copy" transform="translate(45.000000, 51.460000) scale(-1, 1) translate(-45.000000, -51.460000) translate(37.500000, 40.920000)">
                        <path d="M11.1206895,19.7625 C14.3667326,18.90763 15.8230178,13.9040458 14.3733934,8.58668191 C12.9237689,3.26931803 9.11717827,-0.348248011 5.8711351,0.506622004 C2.62509194,1.36149202 1.1688068,6.36507621 2.61843121,11.6824401 C4.06805562,16.999804 7.8746463,20.61737 11.1206895,19.7625 Z" id="Oval-6-Copy-4" fill="#C88F5D"></path>
                        <path d="M10.3340324,16.5617787 C12.2697113,16.052003 13.3075804,13.6898561 12.652178,11.2857759 C11.9967755,8.88169571 9.89628906,7.34605848 7.96061017,7.85583415 C6.02493129,8.36560983 4.98706217,10.7277567 5.64246463,13.1318369 C6.29786708,15.5359171 8.39835352,17.0715544 10.3340324,16.5617787 Z" id="Oval-6-Copy-6" fill="#DEA16B"></path>
                        <g id="Group-3" transform="translate(6.408171, 5.270000) rotate(-12.000000) translate(-6.408171, -5.270000) translate(1.635444, 2.635000)" fill="#DEA16B">
                            <ellipse id="Oval-7" transform="translate(2.264533, 3.875893) rotate(-12.000000) translate(-2.264533, -3.875893) " cx="2.26453262" cy="3.87589307" rx="1.01413603" ry="0.996757591"></ellipse>
                            <ellipse id="Oval-7-Copy" transform="translate(5.105045, 2.314258) rotate(-12.000000) translate(-5.105045, -2.314258) " cx="5.10504512" cy="2.31425759" rx="1.01413603" ry="0.996757591"></ellipse>
                            <ellipse id="Oval-7-Copy-2" transform="translate(8.245523, 3.339617) rotate(-12.000000) translate(-8.245523, -3.339617) " cx="8.24552253" cy="3.33961734" rx="1.01413603" ry="0.996757591"></ellipse>
                        </g>
                    </g>
                    <ellipse id="Oval-2" fill="#6F6F6F" cx="26.125" cy="14.7667826" rx="1.75" ry="1.74678261"></ellipse>
                    <ellipse id="Oval-2-Copy-3" fill="#6F6F6F" cx="29.875" cy="21.5867826" rx="1.75" ry="1.74678261"></ellipse>
                    <ellipse id="Oval-2-Copy-2" fill="#FFFFFF" cx="26.6875" cy="14.0766957" rx="0.4375" ry="0.436695652"></ellipse>
                    <ellipse id="Oval-2-Copy" fill="#6F6F6F" cx="36.125" cy="14.7667826" rx="1.75" ry="1.74678261"></ellipse>
                    <ellipse id="Oval-2-Copy-2" fill="#FFFFFF" cx="36.6875" cy="14.0766957" rx="0.4375" ry="0.436695652"></ellipse>
                    <path d="M29.9514863,22.5128863 L29.9514863,26.35" id="Path-12" stroke="#6F6F6F" stroke-width="0.620000005"></path>
                    <path d="M24.1485939,24.5937301 C24.1485939,24.5937301 27.106224,26.6257473 29.9899451,26.6257473 C32.8736661,26.6257473 35.708114,24.5937301 35.708114,24.5937301" id="Path-13" stroke="#6F6F6F" stroke-width="0.620000005"></path>
                </g>
            </g>
        </g>
    </g>
</svg>